<?xml version="1.0" encoding="utf-8"?>
<svg viewBox="0 0 53 53" fill="none" xmlns="http://www.w3.org/2000/svg">
  <defs>
    <linearGradient gradientUnits="userSpaceOnUse" x1="27" y1="39" x2="27" y2="47.739" id="gradient-0" gradientTransform="matrix(0.272622, -1.089974, 0.578709, 0.185772, -6.274867, 64.695787)">
      <stop offset="0" style="stop-color: rgb(235, 235, 235);"/>
      <stop offset="1" style="stop-color: rgb(189, 189, 189);"/>
    </linearGradient>
    <linearGradient gradientUnits="userSpaceOnUse" x1="118.287" y1="-385.38" x2="118.287" y2="90.506" id="gradient-1">
      <stop offset="0" style="stop-color: #bada55"/>
      <stop offset="1" style="stop-color: #758d29"/>
    </linearGradient>
  </defs>
  <g class="championIcon" style="" transform="matrix(0.778141, 0, 0, 0.686866, 4.963873, 5.585629)">
    <g class="sparks">
      <path class="spark" d="M42 4C43.1046 4 44 3.10457 44 2C44 0.89543 43.1046 0 42 0C40.8954 0 40 0.89543 40 2C40 3.10457 40.8954 4 42 4Z" style="fill: rgb(189, 189, 189);"/>
      <path class="spark" d="M 42.118 27.898 C 42.67 27.898 43.118 27.45 43.118 26.898 C 43.118 26.345 42.67 25.898 42.118 25.898 C 41.565 25.898 41.118 26.345 41.118 26.898 C 41.118 27.45 41.565 27.898 42.118 27.898 Z" style="fill: rgb(189, 189, 189);"/>
      <path class="spark" d="M35.5 8C35.7761 8 36 7.77614 36 7.5C36 7.22386 35.7761 7 35.5 7C35.2239 7 35 7.22386 35 7.5C35 7.77614 35.2239 8 35.5 8Z" style="fill: rgb(189, 189, 189);"/>
      <path class="spark" d="M42.5 17C42.7761 17 43 16.7761 43 16.5C43 16.2239 42.7761 16 42.5 16C42.2239 16 42 16.2239 42 16.5C42 16.7761 42.2239 17 42.5 17Z" style="fill: rgb(189, 189, 189);"/>
      <path class="spark" d="M 14.693 1.353 C 14.97 1.353 15.193 1.129 15.193 0.853 C 15.193 0.577 14.97 0.353 14.693 0.353 C 14.417 0.353 14.193 0.577 14.193 0.853 C 14.193 1.129 14.417 1.353 14.693 1.353 Z" style="fill: rgb(189, 189, 189);"/>
      <path class="spark" d="M 11.004 13.687 C 11.28 13.687 11.504 13.463 11.504 13.187 C 11.504 12.911 11.28 12.687 11.004 12.687 C 10.728 12.687 10.504 12.911 10.504 13.187 C 10.504 13.463 10.728 13.687 11.004 13.687 Z" style="fill: rgb(189, 189, 189);"/>
      <path class="spark" d="M10.5 49C10.7761 49 11 48.7761 11 48.5C11 48.2239 10.7761 48 10.5 48C10.2239 48 10 48.2239 10 48.5C10 48.7761 10.2239 49 10.5 49Z" style="fill: rgb(189, 189, 189);"/>
      <path class="spark" d="M46 12C46.5523 12 47 11.5523 47 11C47 10.4477 46.5523 10 46 10C45.4477 10 45 10.4477 45 11C45 11.5523 45.4477 12 46 12Z" style="fill: rgb(189, 189, 189);"/>
      <path class="spark" d="M14 21C14.5523 21 15 20.5523 15 20C15 19.4477 14.5523 19 14 19C13.4477 19 13 19.4477 13 20C13 20.5523 13.4477 21 14 21Z" style="fill: rgb(189, 189, 189);"/>
      <path class="spark" d="M4 13C4.55228 13 5 12.5523 5 12C5 11.4477 4.55228 11 4 11C3.44772 11 3 11.4477 3 12C3 12.5523 3.44772 13 4 13Z" style="fill: rgb(189, 189, 189);"/>
      <path class="spark" d="M3 39C3.55228 39 4 38.5523 4 38C4 37.4477 3.55228 37 3 37C2.44772 37 2 37.4477 2 38C2 38.5523 2.44772 39 3 39Z" style="fill: rgb(189, 189, 189);"/>
      <path class="spark" d="M39 52C39.5523 52 40 51.5523 40 51C40 50.4477 39.5523 50 39 50C38.4477 50 38 50.4477 38 51C38 51.5523 38.4477 52 39 52Z" style="fill: rgb(189, 189, 189);"/>
      <path class="spark" d="M 48.5 49.368 C 49.328 49.368 50 48.696 50 47.868 C 50 47.039 49.328 46.368 48.5 46.368 C 47.672 46.368 47 47.039 47 47.868 C 47 48.696 47.672 49.368 48.5 49.368 Z" style="fill: rgb(189, 189, 189);"/>
      <path class="spark" d="M14.5 9C15.3284 9 16 8.32843 16 7.5C16 6.67157 15.3284 6 14.5 6C13.6716 6 13 6.67157 13 7.5C13 8.32843 13.6716 9 14.5 9Z" style="fill: rgb(189, 189, 189);"/>
      <path class="spark" d="M 15.737 28.37 C 16.842 28.37 17.737 27.474 17.737 26.37 C 17.737 25.265 16.842 24.37 15.737 24.37 C 14.633 24.37 13.737 25.265 13.737 26.37 C 13.737 27.474 14.633 28.37 15.737 28.37 Z" style="fill: rgb(189, 189, 189);"/>
    </g>
    <g class="left_branch" transform="matrix(1, 0, 0, 1, -4.54907, -1.088224)">
      <g class="stem_rapper">
        <g class="top_leaf">
          <path class="leaf" fill-rule="evenodd" clip-rule="evenodd" d="M 5.789 18.185 L 6.289 16.185 C 6.589 17.185 6.689 18.285 6.689 19.285 L 6.689 19.585 C 6.489 20.185 5.889 20.585 5.289 20.485 C 4.689 20.385 4.289 19.785 4.389 19.185 C 4.689 17.985 5.389 16.985 6.289 16.185 L 5.789 18.185 Z" style="fill: rgb(189, 189, 189);"/>
        </g>
        <g class="left">
          <g class="leaf_rapper">
            <path class="leaf" fill-rule="evenodd" clip-rule="evenodd" d="M 3.789 24.086 C 2.489 22.986 1.389 21.586 0.689 20.086 L 3.189 21.886 L 0.689 20.086 C 2.189 20.386 3.689 20.886 5.089 21.486 C 5.189 21.586 5.289 21.586 5.489 21.686 C 6.189 21.986 6.389 22.786 6.089 23.486 C 5.989 23.586 5.989 23.686 5.889 23.786 C 5.389 24.386 4.489 24.486 3.789 24.086 Z" style="fill: rgb(189, 189, 189);"/>
          </g>
          <g class="leaf_rapper">
            <path class="leaf" fill-rule="evenodd" clip-rule="evenodd" d="M 1.089 24.884 C 2.589 24.884 4.089 25.184 5.589 25.584 C 5.789 25.584 5.889 25.684 5.989 25.784 C 6.789 26.084 7.089 26.984 6.789 27.684 C 6.789 27.684 6.789 27.684 6.789 27.784 C 6.289 28.384 5.489 28.684 4.689 28.384 C 3.289 27.384 2.089 26.184 1.089 24.884 Z" style="fill: rgb(189, 189, 189);"/>
          </g>
          <g class="leaf_rapper">
            <path class="leaf" fill-rule="evenodd" clip-rule="evenodd" d="M 8.189 30.286 C 9.189 30.586 9.789 31.586 9.489 32.586 C 9.089 33.586 7.989 34.086 6.989 33.686 L 6.889 33.686 C 6.789 33.686 6.689 33.586 6.589 33.586 C 4.789 32.686 3.089 31.486 1.689 30.086 C 3.689 29.786 5.689 29.786 7.689 30.086 C 7.889 30.086 7.989 30.086 8.189 30.286 C 8.089 30.286 8.089 30.286 8.189 30.286 Z" style="fill: rgb(189, 189, 189);"/>
          </g>
          <g class="leaf_rapper">
            <path class="leaf" fill-rule="evenodd" clip-rule="evenodd" d="M 11.989 35.186 C 13.089 35.386 13.789 36.386 13.589 37.486 C 13.289 38.486 12.189 39.086 11.189 38.786 L 10.989 38.786 C 10.889 38.786 10.689 38.686 10.589 38.686 C 8.689 37.886 6.989 36.886 5.389 35.586 C 7.389 35.086 9.489 34.986 11.489 35.186 L 11.989 35.186 Z" style="fill: rgb(189, 189, 189);"/>
          </g>
        </g>
        <g class="right">
          <g class="leaf_rapper">
            <path class="leaf" fill-rule="evenodd" clip-rule="evenodd" d="M 6.889 22.086 L 9.189 20.486 C 8.589 21.886 7.689 23.186 6.489 24.186 C 5.789 24.586 4.889 24.486 4.389 23.886 C 3.889 23.286 3.989 22.486 4.589 21.986 L 4.689 21.886 C 4.789 21.786 4.889 21.786 4.989 21.686 C 6.289 21.086 7.689 20.686 9.089 20.486 L 6.889 22.086 Z" style="fill: rgb(189, 189, 189);"/>
          </g>
          <g class="leaf_rapper">
            <path class="leaf" fill-rule="evenodd" clip-rule="evenodd" d="M 5.589 25.785 L 5.389 25.985 C 4.889 26.585 4.889 27.385 5.389 27.985 C 6.089 28.585 7.089 28.485 7.689 27.885 L 7.989 27.585 C 8.789 26.385 9.489 25.185 9.889 23.785 C 8.389 24.185 6.889 24.885 5.589 25.785 Z" style="fill: rgb(189, 189, 189);"/>
          </g>
          <g class="leaf_rapper">
            <path class="leaf" fill-rule="evenodd" clip-rule="evenodd" d="M 7.489 29.685 L 7.389 29.785 C 6.889 30.485 7.089 31.485 7.789 31.985 C 8.589 32.485 9.589 32.285 10.189 31.585 C 10.289 31.485 10.389 31.385 10.389 31.185 C 11.089 29.785 11.489 28.285 11.689 26.785 C 10.189 27.485 8.689 28.385 7.489 29.485 C 7.589 29.485 7.589 29.585 7.489 29.685 Z" style="fill: rgb(189, 189, 189);"/>
          </g>
          <g class="leaf_rapper">
            <path class="leaf" fill-rule="evenodd" clip-rule="evenodd" d="M 12.289 30.086 C 11.589 31.386 11.089 32.886 10.889 34.386 C 10.889 34.586 10.789 34.686 10.789 34.886 C 10.789 35.786 11.589 36.586 12.489 36.586 L 12.589 36.586 C 13.489 36.586 14.189 35.886 14.189 34.986 L 14.189 34.886 C 14.189 34.786 14.189 34.586 14.089 34.486 C 13.789 32.886 13.189 31.386 12.289 30.086 Z" style="fill: rgb(189, 189, 189);"/>
          </g>
        </g>
        <path class="stem" d="M 19.789 40.686 C 17.389 40.386 14.989 39.586 12.989 38.286 C 10.889 36.986 9.089 35.286 7.689 33.186 C 6.289 31.086 5.389 28.786 4.989 26.286 C 4.589 23.886 4.889 21.386 5.789 19.086 C 5.389 21.386 5.589 23.786 6.089 26.086 C 6.689 28.286 7.589 30.486 8.889 32.386 C 10.189 34.286 11.789 35.986 13.689 37.386 C 15.489 38.686 17.589 39.786 19.789 40.686 Z" style="fill: rgb(189, 189, 189);"/>
      </g>
      <g class="bottom_leafs">
        <g class="leaf_rapper">
          <path class="leaf" fill-rule="evenodd" clip-rule="evenodd" d="M 16.289 32.884 C 16.189 34.584 16.289 38.584 17.389 40.884 C 18.089 42.084 19.489 42.584 20.789 42.184 C 21.989 41.684 22.589 40.184 22.089 38.984 C 22.089 38.884 21.989 38.884 21.989 38.784 C 21.889 38.584 21.789 38.384 21.589 38.184 C 20.089 36.184 18.289 34.384 16.289 32.884 L 18.389 37.384 L 16.289 32.884 Z" style="fill: rgb(189, 189, 189);"/>
        </g>
        <g class="leaf_rapper">
          <path class="leaf" fill-rule="evenodd" clip-rule="evenodd" d="M 18.289 39.586 L 18.489 39.586 C 19.889 39.386 21.089 40.286 21.489 41.586 C 21.589 42.886 20.689 44.086 19.389 44.286 L 18.589 44.286 C 15.889 44.186 13.289 43.686 10.789 42.886 C 12.889 41.386 15.289 40.286 17.789 39.586 L 18.289 39.586 Z" style="fill: rgb(189, 189, 189);"/>
        </g>
      </g>
    </g>
    <g class="right_branch" transform="matrix(1, 0, 0, 1, 5.140456, 0)">
      <g class="stem_rapper">
        <g class="top_leaf">
          <path class="leaf" fill-rule="evenodd" clip-rule="evenodd" d="M46.9003 18.6992V18.3992C46.8003 17.2992 46.9003 16.1992 47.2003 15.1992L47.7003 17.1992L47.2003 15.1992C48.1003 15.9992 48.7003 17.0992 49.2003 18.1992C49.3003 18.7992 49.0003 19.2992 48.4003 19.4992C47.8003 19.5992 47.1003 19.2992 46.9003 18.6992Z" style="fill: rgb(189, 189, 189);"/>
        </g>
        <g class="left">
          <g class="leaf_rapper">
            <path class="leaf" fill-rule="evenodd" clip-rule="evenodd" d="M46.7003 21.1992L44.4003 19.6992C45.0003 21.0992 46.0003 22.2992 47.2003 23.2992C47.9003 23.6992 48.7003 23.5992 49.2003 22.9992C49.7003 22.3992 49.5003 21.4992 48.9003 21.0992C48.9003 21.0992 48.8003 21.0992 48.8003 20.9992C48.7003 20.8992 48.6003 20.8992 48.5003 20.7992C47.2003 20.1992 45.7003 19.8992 44.3003 19.6992L46.7003 21.1992Z" style="fill: rgb(189, 189, 189);"/>
          </g>
          <g class="leaf_rapper">
            <path class="leaf" fill-rule="evenodd" clip-rule="evenodd" d="M48.2003 24.9C48.3003 24.9 48.3003 25 48.4003 25C49.0003 25.5 49.0003 26.3 48.5003 26.9L48.4003 27C47.8003 27.6 46.7003 27.6 46.1003 27L45.8003 26.7C44.9003 25.6 44.2003 24.3 43.8003 23C45.3003 23.3 46.8003 23.9 48.1003 24.8C48.2003 24.8 48.2003 24.8 48.2003 24.9Z" style="fill: rgb(189, 189, 189);"/>
          </g>
          <g class="leaf_rapper">
            <path class="leaf" fill-rule="evenodd" clip-rule="evenodd" d="M47.0002 29.3996L47.1002 29.4996C47.7002 30.2996 47.5002 31.4996 46.7002 32.0996C45.7002 32.7996 44.4002 32.5996 43.7002 31.5996C43.6002 31.4996 43.5002 31.2996 43.5002 31.1996C42.6002 29.5996 42.0002 27.8996 41.7002 26.0996C43.5002 26.7996 45.2002 27.8996 46.7002 29.0996C46.8002 29.2996 46.9002 29.2996 47.0002 29.3996Z" style="fill: rgb(189, 189, 189);"/>
          </g>
          <g class="leaf_rapper">
            <path class="leaf" fill-rule="evenodd" clip-rule="evenodd" d="M41.3003 29.3008C42.2003 30.9008 42.8003 32.5008 43.2003 34.3008C43.2003 34.5008 43.3003 34.7008 43.3003 34.9008C43.3003 36.0008 42.4003 37.0008 41.3003 37.0008C40.2003 37.0008 39.3003 36.2008 39.3003 35.1008V35.0008C39.3003 34.8008 39.3003 34.7008 39.4003 34.5008C39.7003 32.6008 40.4003 30.9008 41.3003 29.3008Z" style="fill: rgb(189, 189, 189);"/>
          </g>
        </g>
        <g class="right">
          <g class="leaf_rapper">
            <path class="leaf" fill-rule="evenodd" clip-rule="evenodd" d="M50.2004 22.3008C51.3004 21.3008 52.1004 20.1008 52.7004 18.8008L50.6004 20.4008L52.6004 18.8008C51.3004 19.1008 50.1004 19.6008 48.9004 20.2008C48.8004 20.2008 48.7004 20.3008 48.6004 20.4008L48.5004 20.5008H48.4004C47.9004 20.9008 47.8004 21.7008 48.2004 22.2008C48.8004 22.6008 49.6004 22.6008 50.2004 22.3008Z" style="fill: rgb(189, 189, 189);"/>
          </g>
          <g class="leaf_rapper">
            <path class="leaf" fill-rule="evenodd" clip-rule="evenodd" d="M52.6002 23.8008C51.1002 23.8008 49.5002 24.2008 48.1002 24.7008C47.9002 24.7008 47.8002 24.8008 47.7002 24.9008C46.9002 25.2008 46.6002 26.1008 46.9002 26.9008C47.4002 27.6008 48.3002 27.8008 49.0002 27.4008C50.4002 26.4008 51.6002 25.2008 52.6002 23.8008Z" style="fill: rgb(189, 189, 189);"/>
          </g>
          <g class="leaf_rapper">
            <path class="leaf" fill-rule="evenodd" clip-rule="evenodd" d="M52.3002 28.7994C51.1002 30.0994 49.7002 31.0994 48.2002 31.8994C48.1002 31.9994 48.0002 31.9994 47.9002 31.9994H47.7002C46.9002 32.2994 45.9002 31.8994 45.6002 31.0994C45.3002 30.2994 45.8002 29.3994 46.6002 29.0994C46.7002 29.0994 46.7002 29.0994 46.8002 29.0994C46.9002 29.0994 47.1002 28.9994 47.2002 28.9994C48.9002 28.5994 50.6002 28.4994 52.3002 28.7994Z" style="fill: rgb(189, 189, 189);"/>
          </g>
          <g class="leaf_rapper">
            <path class="leaf" fill-rule="evenodd" clip-rule="evenodd" d="M42.1001 34.4993C41.1001 34.6993 40.4001 35.7993 40.6001 36.7993C41.0001 37.7993 42.0001 38.2993 43.0001 37.9993H43.2001C43.3001 37.9993 43.4001 37.8993 43.5001 37.8993C45.4001 36.9993 47.1001 35.8993 48.7001 34.5993L44.8001 35.5993L48.6001 34.4993C46.6001 34.0993 44.6001 34.0993 42.6001 34.2993C42.5001 34.2993 42.3001 34.2993 42.2001 34.3993L42.1001 34.4993Z" style="fill: rgb(189, 189, 189);"/>
          </g>
        </g>
        <path class="stem" d="M34.5 40.1992C36.7 39.2992 38.7 38.0992 40.5 36.5992C42.3 35.1992 43.8 33.4992 45.1 31.4992C46.3 29.5992 47.2 27.3992 47.7 25.1992C48.2 22.8992 48.2 20.4992 47.9 18.1992C48.9 20.4992 49.2 22.8992 48.9 25.3992C48.6 27.8992 47.7 30.1992 46.4 32.2992C45 34.3992 43.3 36.0992 41.2 37.4992C39.2 38.8992 36.9 39.7992 34.5 40.1992Z" style="fill: rgb(189, 189, 189);"/>
      </g>
      <g class="bottom_leafs">
        <g class="leaf_rapper">
          <path class="leaf" fill-rule="evenodd" clip-rule="evenodd" d="M38 32.4004C38.1 33.9004 38.2 37.3004 37.3 39.3004C36.8 40.4004 35.5 40.9004 34.4 40.5004C33.4 40.1004 32.8 39.0004 33.2 37.9004C33.2 37.8004 33.3 37.7004 33.3 37.7004C33.4 37.5004 33.5 37.4004 33.6 37.2004C34.8 35.4004 36.3 33.8004 38 32.4004L36.3 36.3004L38 32.4004Z" style="fill: rgb(189, 189, 189);"/>
        </g>
        <g class="leaf_rapper">
          <path class="leaf" fill-rule="evenodd" clip-rule="evenodd" d="M35.9004 38.9991H35.7004C34.3004 38.8991 33.1004 39.8991 32.8004 41.1991C32.7004 42.4991 33.7004 43.6991 35.0004 43.7991H35.8004C38.5004 43.5991 41.1004 43.0991 43.6004 42.0991L38.5004 41.5991L43.6004 42.0991C41.4004 40.6991 39.0004 39.6991 36.5004 39.0991C36.2004 39.0991 36.1004 38.9991 35.9004 38.9991Z" style="fill: rgb(189, 189, 189);"/>
        </g>
      </g>
    </g>
    <g class="glory_rays_rapper">
      <g class="glory_rays">
        <rect x="26.5" y="33.5" width="1" height="4" rx="0.5" style="fill: rgb(189, 189, 189);"/>
        <rect x="32.8286" y="35.5" width="1" height="4" rx="0.5" transform="rotate(45 32.8286 35.5)" style="fill: rgb(175, 175, 175);"/>
        <rect x="36.7002" y="42.5" width="1" height="4" rx="0.5" transform="rotate(90 36.7002 42.5)" style="fill: rgb(178, 178, 178);"/>
        <rect x="26.582" y="49.124" width="1" height="4" rx="0.5" style="fill: rgb(189, 189, 189);"/>
        <rect x="33.75" y="49.494" width="1" height="4" rx="0.5" transform="matrix(-0.707107, 0.707107, -0.707107, -0.707107, 93.345741, 60.812031)" style="fill: rgb(189, 189, 189);"/>
        <rect width="1" height="4" rx="0.5" transform="matrix(-0.707107 0.707107 0.707107 0.707107 20.3716 35.5)" style="fill: rgb(189, 189, 189);"/>
        <rect width="1" height="4" rx="0.5" transform="matrix(4.37114e-08 1 1 -4.37114e-08 17.5 42.5)" style="fill: rgb(203, 203, 203);"/>
        <rect width="1" height="4" rx="0.5" transform="matrix(0.707107, 0.707107, 0.707107, -0.707107, 19.229486, 49.494099)" style="fill: rgb(204, 204, 204);"/>
      </g>
    </g>
    <path class="medalion" d="M 27 47.739 C 29.209 47.739 31 45.783 31 43.37 C 31 40.956 29.209 39 27 39 C 24.791 39 23 40.956 23 43.37 C 23 45.783 24.791 47.739 27 47.739 Z" style="fill: url(#gradient-0);"/>
    <text style="fill: rgb(189, 189, 189); font-family: Arial, sans-serif; font-size: 425.376px; line-height: 680.601px; stroke: url(#gradient-1); white-space: pre;" transform="matrix(0.085018, 0, 0, 0.093577, 16.7052, 31.750113)">2</text>
  </g>
</svg>