<svg xmlns="http://www.w3.org/2000/svg" viewBox="0 0 1176 703"><defs><style>.cls-1{fill:#fff;}.cls-2{fill:#005;}</style></defs><title>Latix logo F1</title><g id="Layer_3" data-name="Layer 3"><polygon class="cls-1" points="16 357 118 289 142 323 171 304 184 298 236 424 223 159 324 109 360 144 377 131 537 289 552 190 514 181 514 144 488 128 475 26 762 0 751 45 789 48 732 178 703 183 704 289 739 246 762 265 808 207 800 184 818 88 1034 194 1000 220 1017 236 940 289 908 281 837 358 982 393 1055 281 1065 264 1140 345 1126 373 1140 380 1120 413 1176 433 1168 510 1136 510 1134 528 1042 518 933 650 933 703 596 693 307 703 307 630 255 650 244 630 218 646 0 371 16 357"/></g><g id="Layer_1" data-name="Layer 1"><path class="cls-2" d="M360,469.79l1.07-.71a4.27,4.27,0,0,0,2.86-.34,83.37,83.37,0,0,0,7.17-5.49,79,79,0,0,1,8.05-3.77.57.57,0,0,0,.18-.89l4.11-1.94L392,451a83.64,83.64,0,0,1,7.88-4.42c.12-.59,1.43-1.72,3.94-3.37l.35.54.55-1.13q3.21-1.35,3.57-1.59l.72-1.24,1.43-.17a5,5,0,0,0,1.26-1.6q10.91-4.87,13.42-6.54c.71-.47,1-.88.72-1.24l4.11-1.94,8.42-5.55a.56.56,0,0,1,.89.18l.72-1.24,1.08-.71q10.31-4.23,12.67-.65a14.62,14.62,0,0,1,2.11,5.54l1.25.72c2.12,4.77,3.19,7.58,3.23,8.41a.56.56,0,0,0,.89.18l1.23,3a4.91,4.91,0,0,0,2,1.8q.16,1.42,2.46,6.08a4.85,4.85,0,0,1,1.6,1.26,10.61,10.61,0,0,0,1.76,5l11.28-7.43,3.58-1.59.72-1.25q8.12-4.83,8.59-4.12a.56.56,0,0,0,.18-.89q15.53-9.19,16.46-7.77a4.39,4.39,0,0,0,2.49,1.45l.71,1.07a4.39,4.39,0,0,0,.34,2.86l1.25.72,5.34,13.95a5.63,5.63,0,0,1,2,1.79q-.71.48,3.52,10a5,5,0,0,1,1.6,1.26q.22,2.69,4.58,11.62a5,5,0,0,1,1.95,1.8q-1.6,1.06,12.59,28.44,2.52,7.33,13.64,30a5.1,5.1,0,0,1,1.6,1.26q6.81,17.35,35.24,76.45a22.73,22.73,0,0,0,5.54-2.11l3.58-2.36a32.46,32.46,0,0,0,5-4.08l7.69-3.53.72-1.25q5.19-2.64,6.62-2.82a4.89,4.89,0,0,1,1.8-2q5.6-.87,7.72,2.36,1.89,2.87,10,30.39.6.9,2.28,7l.54-.35q29.73-18.82,31.73-15.78l.36.54q4.71,20,13.9,49.15l-.54.35,1.25.72,0,4.64-3.93,1.83q-4.49,3.72-5.56,4.43a.57.57,0,0,1-.89-.18l-2.33,2.3-12.9,8.5a.56.56,0,0,1-.89-.18l-.72,1.25-1.61,1.06c-2,1.34-3.4,2-4.11,1.94l-2.16,2.19q-43.81,27.86-44.4,27a.56.56,0,0,0-.18.89l-3,1.23-4.84,3.19q-6.66,1.56-10.68-4.52a.56.56,0,0,1-.89-.18l.72-1.25A212.81,212.81,0,0,1,580,702.65l-1.42.17a5.66,5.66,0,0,0-1.8,1.95c-4,2.28-6.12,3.18-6.44,2.71a5,5,0,0,1-1.26,1.6l-8.24,6.2q-2.15,1.41-7.67-1.11l-1.06-1.61a.57.57,0,0,1,.18-.89,18.27,18.27,0,0,1-5.5-4.85l-3.07-4.66q-1.49-.3-6.22-5.92a.57.57,0,0,1,.19-.89,35.32,35.32,0,0,0-8.17-7.72,5,5,0,0,1-.53-2l-9.05-10.22.54-.36-4.14-4a3.8,3.8,0,0,1-.53-2q-8.08-11.1-12.06-13.63l-.17-1.43L490.37,640l-.17-1.43A11.58,11.58,0,0,1,487,636l-.17-1.43-2.49-1.44-.17-1.43a14.5,14.5,0,0,1-4.26-4.12.56.56,0,0,1,.18-.89q-1.41-2.16-12.12-14.11l.54-.35a27.57,27.57,0,0,1-4.27-4.13,4.76,4.76,0,0,0-.52-2,9.81,9.81,0,0,1-3.2-2.52c-.16-.24-.69-1.43-1.59-3.58q-16.6-20.13-21.35-24.2a.57.57,0,0,1,.19-.89,36.18,36.18,0,0,1-6-6.81l.54-.36L428,563.66l-.17-1.42a12.74,12.74,0,0,0-4.8-3.78.56.56,0,0,1,.18-.89q-8.75-10.94-13.36-15.59l-.71-1.08a5,5,0,0,1-.88-2.5l-3.2-2.52a.57.57,0,0,1,.19-.89q-20.34-24.61-23.48-27.43l-1.23-3c-.16-.23-1.82-2-5-5.2l-1.24-3q-6.68-7.41-8.4-8.07l-3.19-4.84A1.13,1.13,0,0,0,361,483Q354.6,473.34,360,469.79Zm10.5,5.41a.57.57,0,0,1-.18.89l20.1,23.49a.57.57,0,0,1-.18.89Q409.49,522.7,410,523.42a.57.57,0,0,1-.19.89l2.31,2.33,3.19,4.83a27.61,27.61,0,0,0,7.1,7.66.57.57,0,0,1-.19.89q19.94,24.38,24.54,29l.17,1.42Q457.6,583.22,458,583.75l.17,1.43q1.83.84,7.28,7.53a.57.57,0,0,1-.19.89l2.31,2.33,3.54,5.38a126.81,126.81,0,0,1,11.24,12.37l.17,1.43q2.49,1.44,21.71,24.74l-.54.35q6,6,14.72,16.5c.36-.24.78,0,1.25.72l.17,1.43a62.34,62.34,0,0,0,9.82,10.22l.71,1.08a.56.56,0,0,1-.18.89l11.71,13.09a5,5,0,0,0,.52,2q2.43,1.74,11.43,11.48L554,699a5,5,0,0,1,1.6,1.26l-.54.35a9.23,9.23,0,0,1,3.91,3.59l2.68-1.77c1.08-.7,1.73-.88,2-.52l2.33-2.31,1.61-1.06a76.92,76.92,0,0,1,7.7-4.3.57.57,0,0,0,.18-.9q8.24-3.87,24.89-14.86l3.76-2.48c.24-.15.47,0,.71.3a.56.56,0,0,0,.18-.89l4.12-1.94,2.68-1.77a31.75,31.75,0,0,0,4.48-3.72l1.43-.17c.72-.48,1-.89.72-1.25l6.8-3.71,7-4.61a.57.57,0,0,1,.89.19l.72-1.25a76.92,76.92,0,0,0,7.7-4.3l.53-.36,1.43-.17Q640.3,638.24,633.21,617q-2.21-10.35-3.51-12.33-6.8,3.72-10,5.84l-.72,1.24-1.43.18a.57.57,0,0,0-.19.89q-4.82,1.63-14.31,7.12a4.93,4.93,0,0,1-1.79,2l-.36-.53a.56.56,0,0,0-.18.89c-3.46,1.76-5.31,2.47-5.55,2.11a.58.58,0,0,0-.18.89,228.78,228.78,0,0,0-21.48,12.62l-2.38,1.06a8,8,0,0,1-1.92,1.77l-1.31.35-2.45,2.13q-3.23,2.13-7.71-4.68l.54-.35-1.25-.72-.17-1.43a4.89,4.89,0,0,1-2-1.8,1.13,1.13,0,0,0,.37-1.78l-5.67-8.59q-6.84-12.7-7.31-13.43L540,608q-1.58-4.35-7.41-15.92a1.14,1.14,0,0,1-1.78-.37v-2.32l-1.24-.72a10.61,10.61,0,0,0-1.76-5l-.36-.54-2.13-.9.19-3.22-.94-1.43a4.89,4.89,0,0,0-2-1.79q-5.18-11-5.64-13.24l-1.24-.72-.18-1.43a5,5,0,0,1-1.6-1.26,28.56,28.56,0,0,0-3.17-7.15L509,549.33a.56.56,0,0,1,.18-.89.56.56,0,0,0-.89-.18c-2.39-4.42-3.24-6.86-2.52-7.33a3.8,3.8,0,0,0-1.6-1.26q-5.48-9.48-6.53-13.42a5,5,0,0,1-2-1.79l.54-.36-1.24-.72a21.07,21.07,0,0,0-.87-4.82l-2-1.8-.17-1.42a.57.57,0,0,0-.89-.19q-5.83-11.56-9.23-19.86l-1.25-.72-.71-1.07a4.2,4.2,0,0,0-2.48-3.76,1.14,1.14,0,0,0,.37-1.78l-2.83-4.3a7.71,7.71,0,0,1-1.05-3.93,1.15,1.15,0,0,1-1.79-.37,23.52,23.52,0,0,0-3.93-9.48l-3.54-5.37-1.77-3.46-1.07-.84a30.33,30.33,0,0,1-2.46-6.85.57.57,0,0,0-.89-.19c-2.24-4.17-3.18-6.38-2.82-6.61l-1.25-.73a.58.58,0,0,1,.18-.89L450.42,441q1.08-.72-3-8.05l.54-.35-1.25-.73a4.89,4.89,0,0,0-.88-2.5l-.72,1.25-1.07.71a6.66,6.66,0,0,1-3.76.93c.48.71.18,1.43-.9,2.13a7.4,7.4,0,0,0-3.39.7q-30.09,19.07-34.38,21.12a5,5,0,0,1-1.26,1.6q-3.57,1.59-3.93,1.05l-.72,1.24-8.06,5.32a53.3,53.3,0,0,1-6.26,3.35l-.72,1.25Z" transform="translate(-336 -99)"/><path class="cls-2" d="M577.59,270.31a20.51,20.51,0,0,0,4.82-1.69l2.47-1.88a3.66,3.66,0,0,0,1.9-.26l.83-1.08a.53.53,0,0,1,.81.28l3.56-2.43,3.28-1.6a.53.53,0,0,1,.81.27l.83-1.08,4.37-2.14a5.2,5.2,0,0,0,4.37-2.15c.48.67,1,.86,1.63.56l2.46-1.89,4.09-1.33a4.61,4.61,0,0,1,1.92-1.61l.27.54.83-1.08,2.18-1.07c2.91-1.43,6.29-3.31,10.11-5.64,1.58-.47,2.49-.46,2.73,0l9.84-6.18a7.3,7.3,0,0,0,3.82-.52.53.53,0,0,0,.27-.81l3-.8a73.89,73.89,0,0,0,7-4.12l3-.79a4.7,4.7,0,0,1,1.92-1.62q14.35,8.55,37.3,33.22l2.19-1.07a4.68,4.68,0,0,1,2.45-.53l.83-1.08q9.29-4.56,13.84,4.73c.73-.36,2.26.93,4.6,3.85q6,3.85,12.24,12.52,1-.27,38.91,37.86,23.24,22,25.38,26.41,1.1-.54,29.17,29.07,24.23,24.51,39,38l40.6,41.32-.54.27,3,1.92.27.55q-1,4.35-42.15,43-6.12,5-21.38,20-7.3,6.3-9.31,7.28-4.74,2.32-13.26-10.44-5-4.77-26.24-32.77l-1.36,0q-3.3,4.33-15.61,12.41-6.2,3-22.06-21l.54-.27q-3.33-3.1-13.48-16.43-3.24-2.47-7.28-9.31l-.54.27q2,4,11.56,54,6.89,36.15,11.92,54.7l-1.1,1.9-.55.27q-35.46,9.25-80.89,19.34-17.46,4.49-22.92,7.17l-.55.27c-.36.18-1.72-.29-4.07-1.39l-.8-1.64-3.89-37L643.78,549q-2.62-.74-26.62,4.25l-24.26,4.44c-.17-.37-1.17-.56-3-.57q-3.13-6.37-4.43-38.05L582,474.65q.39-3.34-.73-11.16.81-.63.35-10.34l1-1.17-1.26-.74q-1.57-19.78-1.31-30.76-1.25-2.55-2-27.51c.6-.3.44-2.47-.5-6.53q.92-.45-.74-9.81-.24-4.62,1.4-5.43l-1.62-1.92q-.71-24.94-1-25.5,1-4.8-2.33-51.73-.17-12.8-1.77-17.43Zm13.94,7.44-11.66,5.72q1.78,3.64,3.58,30.78l1.41,29.14a66,66,0,0,1,0,12.43q.63,1.28,1.49,19.6c-.27,3.15-.1,5.33.49,6.54q.27,13,3,51.64l-.54.27,1.08.83a10.9,10.9,0,0,1-.58,4.35l1.08.82.27.55Q590,455.66,593,489c.41.85.66,5,.72,12.52a140.08,140.08,0,0,1,1,20.06.54.54,0,0,0,.82.28q.63,1.27,1.69,28.32l.53,1.09,2.74-1.34q2.54.11,22.88-3.09l.83-1.08a39,39,0,0,0,13.8-1.35c.35.73,1.08.83,2.17.29a4.64,4.64,0,0,0,1.37-1.35q1.27-.63,27.25-3.87,10.63-3.19,20.45-5.29c0-1.82.21-2.81.57-3l-1.08-.83q-.36-.72-1.83-10.62a116,116,0,0,1-4.47-20.18c-.18-.36.1-.72.83-1.08L682,495.73q-1.53-14.62-1.24-16.34l-2-2.65a14.38,14.38,0,0,1,.76-4.44l-1.26-.73L678,471q.74-1.71-2.42-15.08.45-.9-1.81-13.35,1.1-.54-.24-3.27a4.39,4.39,0,0,1-1.35-1.37c.72-.36.56-2.08-.51-5.17l.32-6.26a4.76,4.76,0,0,1-1.35-1.37q-3-17.53-1.75-20.16l6.84-5.39c.48.67,1,.86,1.63.56a.53.53,0,0,0,.28-.81l3-.8,6-2.95a6.07,6.07,0,0,0,2.47-1.88l3.54-1.06,7.11-3.49a5,5,0,0,1,5.71.59c.88,2.73,1.42,4.28,1.59,4.64q15,19.53,17,20.81l.27.55a.54.54,0,0,1-.28.82,21.78,21.78,0,0,1,4.59,5.2l-.55.27,8.36,10.13v1.36q6.47,9,8.09,9.59l.9,1.82a.55.55,0,0,1-.28.82q13.65,18.15,15.9,20l.54,1.09a.54.54,0,0,1-.28.81,129.74,129.74,0,0,1,15,19.08c2.64,2.62,4.44,4,5.41,4.12q-.63-1.26,14-12.95a4.73,4.73,0,0,0,1.9-.26c-.23-.48,1.14-2.29,4.13-5.41h1.36c.73-1.27,3.66-3.6,8.76-7l1.93-3,3-.79,1.09-.54a31.08,31.08,0,0,1,8.78-8.37.54.54,0,0,0,.81.28q-1-2,11.78-10.53,6.76-6,6.23-7.12-9.88-11.87-26.72-29.14-1.35-2.73-20.25-21.93-15-16.8-18.36-19.46-12.23-13.89-14.31-15.35l-.26-.55a.54.54,0,0,1,.27-.82q-13.32-13.33-17.09-18.27l-.55.27v-1.36q-3.88-1.93-10-10.69-1.91.25-3.24-2.48a.53.53,0,0,0,.27-.81c-1.09.53-1.81.44-2.17-.29V313l-18.37-18.11v-1.36q-1.82.45-7.12-6.22a.53.53,0,0,1,.28-.81q-5.68-4.68-6.75-6.86a.54.54,0,0,0,.28-.81q-1.1-.37-12.71-10.72l-.54-1.09a.53.53,0,0,1,.28-.81Q664.2,243,660.29,243.35q-9.66,4.74-12.47,5.44a18.38,18.38,0,0,1-4.11,2.69l-3,.79a18.3,18.3,0,0,1-4.1,2.69l-.27-.54-.82,1.08a4.7,4.7,0,0,1-2.46.53,30.2,30.2,0,0,1-4.65,3l-1.09.54a4.68,4.68,0,0,1-2.45.53c-1.34.95-1.89,1.68-1.65,2.16a42.07,42.07,0,0,0-7.64,2.39c-5.29,3-8.84,5-10.66,5.91h-1.36a4.7,4.7,0,0,1-1.92,1.62.54.54,0,0,1-.81-.28Q598.63,274.27,591.53,277.75Zm47.09,28.13q12.72,9.36,36.85,33.67,7.31,5.24,8.38,7.41l.27.55-.57,3Q645.08,364.63,644.27,363l-1.62-1.92q-4.51-27.15-6.77-52.49A7.36,7.36,0,0,1,638.62,305.88Z" transform="translate(-336 -99)"/><path class="cls-2" d="M1075.11,125c2.94,1.31,4.58,2.45,4.9,3.44q0,3.44-17.18,45.41v1.47h4.91a32.53,32.53,0,0,0,6.14-.74l1.23.74q1.71-1.47,17.18-2.95c0-.32.49-.49,1.47-.49,0,.33.25.49.74.49.16-.81.57-1.22,1.22-1.22h.74c1,.16,1.47.57,1.47,1.22v2.21a.65.65,0,0,1-.73.74,4.18,4.18,0,0,1,.73,2q-8.1,16-9.57,17.18l.49,1.23-30.93,66.77q-2.7,2.7-26,4.17-9.33.74-13.74.74a1.08,1.08,0,0,1-1.23,1.22l.49,3.44v1.47a.43.43,0,0,1-.49.49,73.61,73.61,0,0,1,1.23,9.09l-.74,1.22c.49,2.46.74,3.85.74,4.18a35.33,35.33,0,0,0-.74,5.64l.74,1.23-.74,1.47q2.22,32.16,2.21,33.63h-.73l.73,1.47v1.23a.65.65,0,0,1-.73.74l.73,1.47v.49c0,2-.24,2.94-.73,2.94l.73,4.67v2.7q0,25.77,2,37.8v13l.73,3.44h-.73l.73,1.47v1.47c0,.33-.24.49-.73.49l.73,1.47v1.48a5.16,5.16,0,0,1-.73,2.7q.74,1.23,1.47,6.13c0,1-.25,1.48-.74,1.48l.74,6.13q0,6.88.73,35.59a7.85,7.85,0,0,1,.5,2.21h-.5a11.9,11.9,0,0,1,1.23,5.4v15.71a36.42,36.42,0,0,0,.74,6.39,4.18,4.18,0,0,0-.74,2l.74,6.87a5.17,5.17,0,0,1-.74,2.7l1.47,13.75h-.73l.73,1.47q-.74,5.9-.73,6.87c.49,3.93.73,6.38.73,7.37h-.73q.74.48,1.23,11.78c-.5,2.29-1.15,3.44-2,3.44q-2.21,0-26-11-33.37-15-42.71-17.92-2.94-2-22.58-10.8l-11.78-6.14v-2.94a30.81,30.81,0,0,0-.49-5.4q2-13.26,2.7-15.22l-.74-1.23,2-9.57q-21.36-9.81-28.72-9.82l-3.44-3.93v-3.43q7.6-52.77,11.54-95,.74,0,1.47-4.67l-.74-1.47c1-6.54,1.88-10.88,2.7-13a7.17,7.17,0,0,1-.49-2.7q1,0,2-4.17l-.74-1.23q4.91-33.37,6.87-42l-.73-1.48q.73-6.14,1.47-6.13L915.8,274l1.48-3.19a5.52,5.52,0,0,1-.74-2.21.65.65,0,0,0,.74-.73h-.74q-.49,0-5.4.73l-2.95-.73a4.18,4.18,0,0,1-2,.73l-1.47-.73-1.23.73-2.7-.73a.65.65,0,0,0-.74.73l-11-1.22a51.85,51.85,0,0,1-6.88.49h-3.43q-2.46-2.7-4.17-2.7v-1.23H876q-2.7-32.64-4.17-37.8a.65.65,0,0,0,.73-.74L865,223.92l-4.17.74h-2.7a.66.66,0,0,1-.74-.74l-1.22.74a32.44,32.44,0,0,1-6.14-.74,5.69,5.69,0,0,1-2.21.74q-9.07,0-10.31-13l-.74-8.35v-2.7l-1.22-2v-.74c0-1.47.24-2.21.73-2.21l-.73-3.19v-.74q0-15.7-4.18-37.8,0-8.1,44.68-10.31,11.54-1.47,15.71-2.7h.73l55.72-5.64c0-.49.9-.74,2.7-.74l95.49-6.87h.73q.5,0,5.4-1.23h4.18A135.88,135.88,0,0,0,1075.11,125Zm-14.24,11.78h-3.44a5.6,5.6,0,0,1-2.94-.73q-1.47.73-10.31,1.47l-1.23-.74q-2.7,1.23-14.48,2.7l-4.17-.73q-14.49,2.2-57.69,4.9,0,1.24-28.72,2a1.3,1.3,0,0,1-1.47,1.47h-2q-15.23,0-23.32,2.7l-1.47-.73q-25.53,4.17-66.52,7.6l1.22,13h-.73c.49.66,1,3.19,1.47,7.61l-.74,1.48q1.23,2,2.21,11.53a.65.65,0,0,1-.73.74l1.22,11.54h-.49q1.47,11.77,3.44,11.78h5.4c1.31,0,2-.25,2-.74l3.44.74h17.92a5.16,5.16,0,0,1,2.7.73.64.64,0,0,0,.73-.73l3.44.73H913.1a.66.66,0,0,1,.74.74l1.23-.74h1.47a80.59,80.59,0,0,0,9.57-.73Q933,216.8,933,222q-3.18,32.16-4.66,32.15c0,.49.16.74.49.74Q920,317.19,920,326.28v1.47c-.83,1-1.72,4.66-2.7,11L918,340l-4.17,29.46a5.63,5.63,0,0,1,.74,2.94l-1.48.49a5.74,5.74,0,0,1,.74,2.21q-3.44,12-6.14,48.11a55.61,55.61,0,0,1-4.17,19.89q3.44,2.7,32.15,13,20.63,8.36,27.5,12.28a154.49,154.49,0,0,1,25.52,10.31c0-.33.25-.49.74-.49l-.74-1.48a.65.65,0,0,1,.74-.73l-.74-3.44v-2a.66.66,0,0,1,.74-.74q-.74-1.23-1.47-8.35h.73L988,460.3V446.55a5.17,5.17,0,0,0-.74-2.7,5.63,5.63,0,0,0,.74-2.94,4.25,4.25,0,0,1-.74-2H988a.65.65,0,0,0-.74-.73q-.74-17.43-.74-25.29v-6.13a7.89,7.89,0,0,0-.49-3,.44.44,0,0,1,.49-.49l-.49-3.44V386.17q0-3.44-.73-10.31H986l-.73-1.47a.65.65,0,0,1,.73-.74l-.73-3.44V350.33l-.74-4.66h.74l-.74-1.47v-1.48a5.17,5.17,0,0,1,.74-2.7,7.62,7.62,0,0,1-1.48-4.17c0-.82.25-1.23.74-1.23l-.74-4.91v-9.57a5.17,5.17,0,0,1,.74-2.7,5.17,5.17,0,0,1-.74-2.7V314c0-1.47.25-2.21.74-2.21l-.74-3.43V290.68q0-18.89-.73-50.31l-.49-3.44a5.82,5.82,0,0,0,.49-2,95.29,95.29,0,0,0-1.23-9.58h.74l-1.48-4.17c.5-1.31,1-2,1.48-2l-.74-1.48c2.46-3.27,4.5-4.91,6.14-4.91a.65.65,0,0,1,.73.74l3.44-.74h15.71q3.93,0,9.57-.49c.49,0,.74.17.74.49l3.44-.49h13q2.7,0,17.19-39.27l16-37.06-1.47-.74h-3.44Z" transform="translate(-336 -99)"/><path class="cls-2" d="M1323.11,294.48l2.59,2c1,2.22.69,4.47-1.1,6.73q-.64-.51-15.69,9.93l-5.51,4.31.49.39q11.08,4.28,17.57,9.38a4.13,4.13,0,0,1-.43,2.54q-12.51,9.56-43.71,29.81-21.24,16.31-23,14.9-.77,1-15.23-7l-.59-1.26q-1.59.33-10.65-5.5l-6.24,7.93A23.72,23.72,0,0,0,1219,373a4.8,4.8,0,0,0-1.64,1.07l-3.59,5.56-1.25.59a3.67,3.67,0,0,1-.92,2.16c-.17.22-.41.2-.74-.06a.55.55,0,0,0,.11.87l-2.91,2.69-7.65,9.71a4.31,4.31,0,0,0-.91,2.17,4.25,4.25,0,0,0-1.89,1.39l-5.23,6.64-1.55,3a.55.55,0,0,1-.87.1l-1.17,2.49-2.42,3.07a.54.54,0,0,1-.87.1l-.28,1.36-8.66,11c-.17.22-.42.2-.74-.06l-.28,1.35L1163.07,444q-2.8,3.57-6.14,8.8a5.91,5.91,0,0,0-2.53,2.2l-1.55,3-.48-.39q-1.66,2.12,3.74,7.93a7.1,7.1,0,0,1-1.51,4.58,33.54,33.54,0,0,1-5,4.7l.43,1.13c-1.58,1.55-2.52,2.2-2.85,1.95l-.31,1.06-4.59,5.83q8.31,8.12,8.81,9.82a.55.55,0,0,0,.87-.1q8.43,6.63,5.37,10.52l-.38.49a.55.55,0,0,1-.87.1,3.54,3.54,0,0,0-.53,1.68l-21.77,23c-.17.21-.09.45.23.7-1.25.93-4.13,3.91-8.61,8.94l-.28,1.36q-2.55,3.24-8.13,2a.36.36,0,0,1-.07-.58l-2.53-1.46-41-30.7-1.2-.15a3.56,3.56,0,0,0-.91-1.51c-.65-.51-1.1-.6-1.35-.28l-2.7-2.91-5.35-4.21a26.42,26.42,0,0,0-4.28-2.58.55.55,0,0,1-.1-.87,83.4,83.4,0,0,1-7-4.75l-8.76-6.9a4.35,4.35,0,0,1-1.4-1.89l-1.19-.15a4.94,4.94,0,0,1-1.08-1.64,70.84,70.84,0,0,1-10.75-6.36q-1.93-1.54,1.23-6.9a4.35,4.35,0,0,0,1.89-1.4l3-4.75.48.38,3.23-6.1,1.13-.43.28-1.35,1.65-2.11-1.72-2.14-2.17-.92a.55.55,0,0,1-.1-.87l-2.65-1.3-1.3-1a4.27,4.27,0,0,1-1.4-1.89l-1.2-.16-1.88-2.27-3.47-1.94-.42-1.12-3-1.56-1-.77-.43-1.12q7-9.93,10.6-14.46l4.84-6.15a4.48,4.48,0,0,0,2.81-3.56l1.4-1.78c1.36-1.72,3.06-4.23,5.12-7.5l1.12-.43a.55.55,0,0,0-.1-.87,32.66,32.66,0,0,1,2.52-2.2,49.24,49.24,0,0,0,3.87-6.92c1.26-.93,2-1.27,2.38-1,.35-1.12.37-1.81,0-2.06a86.51,86.51,0,0,1,6.58-6.35,13,13,0,0,1,2.85-5.62q3.83-4.86,8.69-1l1,.77q5.68,4.47,7.18,7.23l1.2.15q-1,1.29,13.29,14.14l1.25-.59,1-1.29a41.21,41.21,0,0,0,4-6.05c2.08-2.2,3.29-3.17,3.61-2.92l1.46-2.52,1-1.29,2.36-2.34a6,6,0,0,1,1.08-2l.32.25.44-1.22a.36.36,0,0,1,.58-.07l.44-1.23,5.48-7a41.67,41.67,0,0,1,3.51-3.79q.06-.74,2.1-3.33l.33.26.44-1.23,3-3.88c.26-.32.49-.4.71-.23l.31-1.06,3.19-4.05a.37.37,0,0,1,.58-.07l.44-1.22,9-11.49a26.6,26.6,0,0,0,2.57-4.27,4.33,4.33,0,0,0,1.89-1.39c1.37-2.42,2.14-3.73,2.31-3.95l2.91-2.69.15-1.19a.55.55,0,0,1,.87-.1l3-4.75,1.4-1.78a4.27,4.27,0,0,1,1.89-1.4,13.11,13.11,0,0,1,2.46-5.14,5.08,5.08,0,0,1,2.27-1.88,43.16,43.16,0,0,1,3.34-5.24l8.67-11q-1.37-.28-10.75-6.37l.38-.48q-.87.11-7.79-3.78-4.87-3.83-2.06-7.39.63-.81,11.18-51.23l.64-8.15.64-.81q2-2.58,26.89,11.22a.55.55,0,0,1,.87-.1l.43,1.12q8.4,4,8.92,3.36l.81.64a.54.54,0,0,1,.1.86q9.68,4.74,14.75,6.63l2,2.12Q1289.2,279.84,1323.11,294.48Zm-40.86-10.15-.43-1.13a12.72,12.72,0,0,1-3.84-1.45l.38-.49q-2.49.15-25.49-13-59.74-29.22-64.44-32.92c-.26.32-1,.3-2.07-.05a3.43,3.43,0,0,0-.91-1.51l-1.19-.15-.59-1.26a63.33,63.33,0,0,1-9.45-5.34l-.77,1q-4,19.41-9.34,51.89,4.37,3.45,17.35,10,5.18,4.1-2.46,13.8a6,6,0,0,0-1.73,1.52c-2.16,3.19-3.29,5.19-3.39,6l-1.13.43-.15,1.19a4.73,4.73,0,0,0-1.63,1.07,24.68,24.68,0,0,1-2.47,5.14l-.49-.39-.15,1.2-.76,1c-.17.21-.42.19-.74-.06l-.28,1.35a4.35,4.35,0,0,1-1.89,1.4,33.17,33.17,0,0,1-1.55,3,33.48,33.48,0,0,1-4.69,5q-4.37,6.52-8.82,12.19l-2.8,3.56-1.68,3.13a3.33,3.33,0,0,0-1.76,1.24.55.55,0,0,0,.1.87l-2.91,2.69-.76,1a25.89,25.89,0,0,0-2.57,4.27,5.54,5.54,0,0,0-2.27,1.88.55.55,0,0,0,.1.87l-2.14,1.72-2.43,3.07-1.68,3.14a4.52,4.52,0,0,0-2.14,1.72,5.65,5.65,0,0,0-1.3,2.64l-2.52,2.21-.77,1c-.32.63-.26,1.11.18,1.45q-5.71,6.25-6.68,6.8a4.41,4.41,0,0,1-2.8,3.56.55.55,0,0,0,.1.87l-2.9,2.69-3.06,3.89-.34,2.09a4.74,4.74,0,0,0-1.34,1,.36.36,0,0,0,.07.58l-2.11,2-2.42,3.07q-7.33,1.31-8.31.54-16.32-15-20.6-21.21-2.27-1.79-3-.81t-4.74,7l-.49-.38-.15,1.19a31.59,31.59,0,0,0-2.52,2.21l-.92,2.16a.55.55,0,0,1-.87.1l-1.3,2.65-3,3.88a.55.55,0,0,1-.87.11l-.15,1.19-2.17,2.75c-.17.22-.42.2-.74-.06l-.28,1.35q-3.83,4.86-9.58,13.17l-1.12.43a85.85,85.85,0,0,1-7.86,11.64l.59,1.25c.54.42.94.48,1.19.15l2.7,2.91,11.19,8.81a3.39,3.39,0,0,1,1.24,1.77l1.35.28a17.45,17.45,0,0,1,3.13,4c1.77.87,2.78,1.14,3,.82l1.88,2.27,7.46,5.88,2.21,2.53a5.61,5.61,0,0,1,2.66,1.3l2.1,1.66a.55.55,0,0,1,.11.87.55.55,0,0,0,.87-.11,84.08,84.08,0,0,0,6.26,5.73l12.81,10.08a90.16,90.16,0,0,0,8.33,5.78,17.41,17.41,0,0,0,3.51,3.55l3.46,1.94.59,1.25q7.27,4.43,9.07,2.16a7,7,0,0,1,2.11-2c.25-.32.27-.57,0-.74a44.61,44.61,0,0,0,7.16-6.42l3.19-4.05a4.33,4.33,0,0,1,1.89-1.39l.15-1.2Q1138.39,477,1147,467q-3.52-4.87-14.11-14.78a16.62,16.62,0,0,1-4.5-10.63l.38-.48c.17-.22.42-.2.74.06,1.44-2.72,1.94-4.24,1.51-4.58l2.74-2.82,2.81-3.56a6.08,6.08,0,0,0,1.07-2,6.17,6.17,0,0,0,1.73-1.52l1-1.3a6.52,6.52,0,0,1,2.8-3.56l1.4-1.78a4.49,4.49,0,0,0,.95-1.87,50.62,50.62,0,0,0,4.38-3.89,13.66,13.66,0,0,1,1.94-3.46l2.91-2.69a.55.55,0,0,0-.11-.87l2.91-2.69.64-.81q2.41-3.08,2.31-3.94a38.93,38.93,0,0,0,4.31-4.47l1.41-1.78q5-6.32,13-17.54a3.45,3.45,0,0,0,1.5-.91,4.33,4.33,0,0,1,.92-2.16.55.55,0,0,1,.87-.1l1.17-2.49,3.67-3.66.15-1.19,1.89-1.4q5-7.34,6.14-8.8l3.54-3.5a5,5,0,0,1,.66-1.84l2.15-1.72a10,10,0,0,1,2-4.2l4.53-5.08a4.62,4.62,0,0,0,.7-1.55c.17-.21,1-1,2.36-2.33q3-4.47,11.91-15.79l2.64,0,.59,1.25q.77-1,28.32,15.75,3.4,2.69,8.45-1.73,15.83-10.08,51.42-35.27l-.48-.38-31.27-14.67A.55.55,0,0,1,1282.25,284.33Z" transform="translate(-336 -99)"/><path class="cls-2" d="M1462.85,445.13q2.94,6.63-4.56,13.36-14,17.31-13.85,18.61,1.29-.12,12.47,9-.63,4.13-17.07,23.44a100.82,100.82,0,0,1-12.22,14.72l-.06,1.38.26.57,63.33,10.89,3.66,2.23,1.68,3.78q-4.18,45.39-6.84,52l-1.12.49q-3,1.33-16.31,0-2.79,1.24-16-.83l-.56.25q1.6,8.13-3.25,21.84l-.56.25q-1.3.58-52.35-3.75-14.74-2.52-40-2,.36,2.34-13.85,18.61-4.29,6.43-16.14,21a409.41,409.41,0,0,1-26,34q.17.38-45.8,59.31-3.62.91-4.12-.22l-.17-.37q-1.64-7.21-1.26-7.38a4.63,4.63,0,0,1-1.31-1.46q1.3-.57-14.17-46.53l-.51-1.13q-.33-.76,9.11-14.7,3.53-5.64,2.85-7.16a8.91,8.91,0,0,1-.89-3,4.93,4.93,0,0,1-1-1.35l.68-1-1.06-.88q-4-15.48.14-17.3.54-2.28,8-14.66-.35-.75,11.83-18.62,4.2-6.63,3.78-7.57l-.25-.57q-.93.4-53.1-5.46a322,322,0,0,1-36.57-4.4l-.87,1.06-.55.25c-.5.22-1.22-.06-2.17-.85q-10.78-21.29-18.26-38.14L1154.4,545c-1.3-2.59-2.26-3.76-2.88-3.48l-.62-2.9-2.44-5.49a4.74,4.74,0,0,0-1.57-2l.06-1.38a4.83,4.83,0,0,1-1.32-1.46l.56-.24a3.64,3.64,0,0,1-1.23-1.27,55.35,55.35,0,0,1-4.09-12.24l-2-1.59q-.33-3.25,1.53-4.08,1.5-.66,19.57,3.33a42.32,42.32,0,0,1,6.84.82,6.63,6.63,0,0,1-.87-3.47l-6.75-12.19q-4.53-12.72-3-17.27,8.67-1.58,21.55,1.77l25.77,3.75q24.26,5.34,41,7.42A74.49,74.49,0,0,1,1265,497.8q1.86-.82,10.55,2.13,1.11-.51,12,1.92.75-.33,35.31,6.09l1.06.89q9.63-14,18.59-29.56,15.39-22.69,42.93-67.78,9.09-11.75,12.53-20.07-.2-1.95,2.61-3.2l.37-.16a139.52,139.52,0,0,1,21.51,18.79q3,2.28,36.68,35.86C1459.72,442.44,1461,443.24,1462.85,445.13Zm-57.37-41.67a234.64,234.64,0,0,1-12.84,20.88q-2.23,1-28.28,45-19.78,29.86-23.15,35.89l-1.1,0q-3.4,9.43-6.38,10.76l-.56.25-1.38-.07c.4.88-.81,2-3.61,3.42q-3.87-2.15-28.39-5.09-14.8-3.18-68.57-12.64-37.93-9-58.85-10.84c-.58-.65-1.85-1-3.8-1l8.57,19.32,2.07,3.16a4.4,4.4,0,0,0,.37,2.33c.28.63,1.44,2.76,3.5,6.38l.7,3.09,1.06.89a.54.54,0,0,1-.3.81q6.54,12.74,8.23,14a7.47,7.47,0,0,0,.39,3.91q3.58,6.57,3.76,6.94l-.06,1.39a3.56,3.56,0,0,1,1.23,1.27l-.56.25a7.4,7.4,0,0,1,2.63,2.91l.51,1.13a.55.55,0,0,1-.31.82l1,.7.25.57,0,1.38a166.09,166.09,0,0,0,32.45,4.19q14.46,2.43,46.51,5.21a22.77,22.77,0,0,1,9,1.21.55.55,0,0,1,.3-.82c4.17,1.33,7,3.39,8.55,6.18l.25.57q-4.47,11-9.8,16.14-.52,3.85-11.67,19-11.62,18.09-18.35,30.59c-3,3-3.14,7.51-.46,13.57q7,31.82,7.73,33.53c-.37.16-.39.62,0,1.38l1.37.07q-.68-1.51,16.06-21.18,38.44-49.7,46-58.74l19.51-25a53.58,53.58,0,0,1,9.67-10.41q.93-.42,14.07,1,1.48-.66,26.47,2.31,25.9,3,53,4.8a305.08,305.08,0,0,0,32.88,2.64l3-19.92,1.27-20.28c-.16-.38-.37-.52-.62-.41q-45.39-8.19-63.52-10.8-22.45-4.32-23-5-4.17-3.36-4.67-4.49l-.51-1.14Q1396,523,1408.4,511.19q-.5-1.12,5-6.3l21.92-28.09q.93-.42,8.88-11.19l11.92-13.91q-15.11-16.41-25.53-23.81-6-8.44-18.08-17.59C1408.32,405.51,1406,403.24,1405.48,403.46Z" transform="translate(-336 -99)"/><path class="cls-1" d="M948.7,492.16c-156.41.65-282.68,128-282,284.39l566.41-2.36C1232.44,617.78,1105.12,491.51,948.7,492.16Zm.34,80.53c83.15-.34,155,49.69,186.49,121.37l-372,1.55C794.48,623.67,865.88,573,949,572.69Z" transform="translate(-336 -99)"/><path class="cls-2" d="M948.71,493.76A239.44,239.44,0,0,0,894,500.23l-1.69.36-1.66.45-3.33.91-6.63,1.85c-2.22.57-4.37,1.4-6.55,2.11l-6.49,2.24c-2.18.7-4.28,1.65-6.41,2.48l-6.35,2.58c-2.13.83-4.16,1.89-6.23,2.85L842.44,519a271.44,271.44,0,0,0-45.76,29.14,316.51,316.51,0,0,0-39,36.65,328.63,328.63,0,0,0-56.86,88.66A312,312,0,0,0,684,723.61l-1.47,6.49-.74,3.26-.37,1.62c-.11.55-.19,1.1-.29,1.64-.76,4.38-1.64,8.76-2.32,13.17s-1.18,8.85-1.69,13.3l-1,13.42-9.43-9.36c47.21,2.58,94.42,4.4,141.62,4q35.4-.15,70.8-1.37,17.7-.6,35.39-1.41l35.4-1.75,35.39-1.88,35.4-1.75c23.59-1.08,47.19-2,70.79-2.51,47.2-1.12,94.39-2.4,141.59-3.18l-16.82,17c-.2-4.36-.39-8.72-.53-13.08-.32-4.34-.75-8.68-1.1-13s-1.18-8.63-1.73-12.94c-.07-.54-.13-1.08-.22-1.62l-.3-1.61-.59-3.21-1.17-6.42a283.75,283.75,0,0,0-38.82-96.55c-1.13-1.88-2.42-3.65-3.62-5.48l-3.64-5.49c-2.53-3.58-5.15-7.11-7.72-10.69s-5.44-6.91-8.16-10.39q-4.32-5-8.63-10.07a302.32,302.32,0,0,0-39-36.52,263.91,263.91,0,0,0-45.88-28.81,240.45,240.45,0,0,0-106.38-24.6Zm0-3.2a347,347,0,0,1,55.79,4.18,332.65,332.65,0,0,1,54.79,13.37,301.27,301.27,0,0,1,52.23,23.18,270.06,270.06,0,0,1,47.13,33.57c3.55,3.31,7.13,6.61,10.62,10s6.77,7,10.09,10.58c3.16,3.71,6.4,7.37,9.48,11.16s6,7.71,8.86,11.68a282.3,282.3,0,0,1,46.61,107.26l1.33,7.26.66,3.62.33,1.82c.1.61.17,1.22.25,1.83l.92,7.31c.28,2.44.67,4.87.85,7.32.36,4.9.77,9.8,1.06,14.7.13,4.9.21,9.81.29,14.72l.25,17.1-17.08-.14c-47.2-.38-94.41-1.27-141.61-2-23.61-.36-47.21-1.05-70.81-1.92l-35.41-1.46-35.41-1.58-35.41-1.46q-17.7-.66-35.4-1.12-35.42-.87-70.81-.78c-47.2,0-94.39,2.2-141.58,5.17l-9.12.57-.32-9.92-.46-14.39c0-4.8.16-9.61.24-14.43,0-2.42.3-4.81.44-7.22l.51-7.23c0-.6.08-1.2.15-1.8l.22-1.8.46-3.6.92-7.2a261.32,261.32,0,0,1,14.9-56.22,256.65,256.65,0,0,1,65.23-95.59A262.2,262.2,0,0,1,786.44,533a293.66,293.66,0,0,1,51.93-23.67l6.73-2.22c2.25-.72,4.46-1.54,6.75-2.12l6.8-1.93c2.27-.63,4.5-1.36,6.81-1.84l6.86-1.61c2.29-.52,4.54-1.16,6.86-1.55l6.9-1.34,3.45-.67,1.72-.34,1.73-.26A353.39,353.39,0,0,1,948.7,490.56Z" transform="translate(-336 -99)"/><path class="cls-2" d="M949,571.09q14.84,0,29.67,1.34c2.49.17,4.94.53,7.43.74,1.25.1,2.48.28,3.71.45l3.72.47c2.49.29,5,.72,7.44,1.08,1.25.17,2.49.4,3.72.64l3.72.66a236.83,236.83,0,0,1,29.62,7.45q7.32,2.4,14.52,5.34c4.77,2,9.5,4.19,14.1,6.63a161.39,161.39,0,0,1,48.7,39.12,168.26,168.26,0,0,1,30.67,54.43l6,17.59-16.46-1.49-23.26-2.11c-7.75-.72-15.5-1.43-23.25-2-15.51-1.19-31-2-46.51-2.08s-31,.21-46.49,1c-3.88.2-7.75.38-11.62.64s-7.75.49-11.62.79c-7.75.56-15.5,1.27-23.24,1.89-15.5,1.38-31,2.78-46.49,3.91q-11.61.84-23.24,1.43c-7.75.39-15.49.69-23.24,1-31,1.16-62,2.55-93,2.88l-26.16.28,10.28-24.26a195.32,195.32,0,0,1,34-53.62,171.12,171.12,0,0,1,49.49-38.8c18.54-9.73,38.5-15.83,58.3-19.7l3.73-.68c1.23-.26,2.47-.49,3.71-.67,2.49-.37,5-.83,7.45-1.13l3.72-.5c1.23-.17,2.47-.35,3.71-.46,2.49-.23,5-.6,7.44-.78Q934.2,571.08,949,571.09Zm0,3.2a149.61,149.61,0,0,0-29,3.13c-4.75,1-9.45,2.22-14.06,3.69s-9.15,3.12-13.56,5c-17.76,7.54-33.65,18.4-47.79,30.4a278.47,278.47,0,0,0-37.89,39.52,219.18,219.18,0,0,0-27.43,46.33l-15.87-24c31,.07,62,1.21,93,2.11,7.75.23,15.5.48,23.25.8s15.5.74,23.25,1.23c15.5,1,31,2.27,46.51,3.52,7.75.57,15.51,1.21,23.26,1.7,3.87.27,7.75.49,11.63.69s7.75.38,11.62.55q23.25.93,46.5.57c15.5-.25,31-1.15,46.49-2.47,7.75-.67,15.49-1.45,23.24-2.23l23.24-2.3L1125,698.68a280.4,280.4,0,0,0-31.62-45,316.65,316.65,0,0,0-39.33-38.47c-3.63-2.91-7.3-5.82-11.12-8.56s-7.7-5.44-11.72-8a169.9,169.9,0,0,0-25.43-13.27c-4.44-1.88-9-3.45-13.63-4.91S982.82,578,978.06,577A146.19,146.19,0,0,0,949.05,574.29Z" transform="translate(-336 -99)"/><path class="cls-1" d="M718.14,701.14a11.85,11.85,0,0,0-7.67-14.9L684,677.75q-4.07,11.09-7.22,22.58l26.5,8.48A11.84,11.84,0,0,0,718.14,701.14Z" transform="translate(-336 -99)"/><path class="cls-2" d="M718.14,701.14a6.88,6.88,0,0,0-.61-5.56,9.43,9.43,0,0,0-3.9-3.43,16,16,0,0,0-2-.81c-.61-.23-1-.78-1.62-1l-.46-.17c-.15,0-.27-.11-.53-.19l-1.39-.44-2.76-.89-22.12-7.08,5-2.43q-4,11-7.13,22.25L678,696.52l22.11,7.08,2.76.88,1.39.45a4.79,4.79,0,0,0,.54.15l.47.13a3.43,3.43,0,0,0,1,.07,2.23,2.23,0,0,1,.95.1,13.55,13.55,0,0,0,2.13.52,9.2,9.2,0,0,0,5.18-.56A7,7,0,0,0,718.14,701.14Zm0,0a35.6,35.6,0,0,1-2.36,5.58,14,14,0,0,1-4.77,5.2,11.72,11.72,0,0,1-3.59,1.42c-1.3.34-2.59-.15-3.86-.31l-.93-.24-.85-.24-1.39-.45-2.76-.88-22.11-7.09L671.86,703l1-3.7q3.18-11.6,7.33-22.9l1.32-3.6,3.65,1.17L707.3,681l2.76.89,1.39.44c.2.06.53.19.83.3l.9.34a11.18,11.18,0,0,1,3.35,2,11.76,11.76,0,0,1,2.13,3.23,13.77,13.77,0,0,1,.83,7.05A36.41,36.41,0,0,1,718.14,701.14Z" transform="translate(-336 -99)"/><path class="cls-1" d="M752.42,633.16a11.85,11.85,0,0,0-2.69-16.54L727.2,600.39q-7.34,9.32-13.87,19.23l22.55,16.23A11.84,11.84,0,0,0,752.42,633.16Z" transform="translate(-336 -99)"/><path class="cls-2" d="M752.42,633.16a6.89,6.89,0,0,0,1.14-5.46,9.52,9.52,0,0,0-2.64-4.47,18,18,0,0,0-1.67-1.4c-.51-.4-.72-1-1.23-1.46l-.37-.3c-.14-.1-.22-.18-.45-.34l-1.17-.85-2.35-1.69-18.82-13.55,5.48-.78q-7.23,9.2-13.67,19l-1-5.45,18.82,13.56,2.36,1.69,1.17.85a4.55,4.55,0,0,0,.47.31l.4.27a3.61,3.61,0,0,0,.89.36,2.19,2.19,0,0,1,.87.38,14.28,14.28,0,0,0,1.87,1.16,9.23,9.23,0,0,0,5.09,1.06A7,7,0,0,0,752.42,633.16Zm0,0a34.74,34.74,0,0,1-4,4.57,14.09,14.09,0,0,1-6.14,3.48,12,12,0,0,1-3.84.25c-1.35-.08-2.42-.94-3.58-1.48l-.82-.52c-.26-.17-.57-.37-.73-.5l-1.18-.85-2.35-1.69L711,622.86l-3.11-2.24,2.11-3.21q6.63-10,14.06-19.49l2.37-3,3.11,2.24,18.82,13.56,2.35,1.69,1.18.85c.17.11.46.35.7.54l.76.61c.89.92,2,1.68,2.57,2.9a11.5,11.5,0,0,1,1,3.73,13.67,13.67,0,0,1-1.39,6.94A37,37,0,0,1,752.42,633.16Z" transform="translate(-336 -99)"/><path class="cls-1" d="M790.69,578a11.85,11.85,0,0,0,17.89-15.43l-16.42-22.41q-9.85,6.61-19.11,14l16.41,22.4A12.06,12.06,0,0,0,790.69,578Z" transform="translate(-336 -99)"/><path class="cls-2" d="M790.69,578a6.76,6.76,0,0,0,3.41,1.84,7.21,7.21,0,0,0,3.78-.27,10.54,10.54,0,0,0,3-1.64c.41-.31.78-.64,1.13-1a3.07,3.07,0,0,1,1.07-.79c.19-.09.4-.18.59-.29l.51-.41a7.26,7.26,0,0,0,.9-.94,7.78,7.78,0,0,0,1.3-2.25,8,8,0,0,0,.1-5.13,8.89,8.89,0,0,0-1.23-2.36l-2.33-3.18-4.67-6.37-9.33-12.73,5.46,1q-9.71,6.51-18.84,13.83l.72-5.49,4.38,6c1.48,2,2.89,4,4.42,5.94a49.71,49.71,0,0,1,2.36,7.47,23.54,23.54,0,0,0,1.26,3.66,15.44,15.44,0,0,0,.86,1.67A17.41,17.41,0,0,0,790.69,578Zm0,0c-.41-.47-.83-.91-1.29-1.35a18.41,18.41,0,0,0-1.33-1.32A24.71,24.71,0,0,0,785,573a48.46,48.46,0,0,1-6.41-4.49c-1.39-2-2.89-4-4.34-6l-4.38-6-2.27-3.09,3-2.4q9.38-7.51,19.38-14.22l3.18-2.14,2.27,3.09,9.33,12.73,4.67,6.37,2.33,3.18a16.73,16.73,0,0,1,2.39,4.62,15.77,15.77,0,0,1-2.82,14.92,20.13,20.13,0,0,1-3.9,3.53,5.8,5.8,0,0,1-2.45,1,8.42,8.42,0,0,1-1.31.18,9.59,9.59,0,0,1-1.31,0,12.44,12.44,0,0,1-4.84-1.23,21.11,21.11,0,0,1-3.77-2.44A39.66,39.66,0,0,1,790.69,578Z" transform="translate(-336 -99)"/><path class="cls-1" d="M861.65,541.41a11.85,11.85,0,0,0,19.61-12.12l-8.71-26.43q-11.46,3.24-22.51,7.41l8.71,26.44A11.92,11.92,0,0,0,861.65,541.41Z" transform="translate(-336 -99)"/><path class="cls-2" d="M861.65,541.41a6.89,6.89,0,0,0,6.78,1.72,10,10,0,0,0,3-1.43,17.59,17.59,0,0,0,2.14-1.8c.34-.23.73-.36,1.09-.56a7,7,0,0,0,.93-.8,8.31,8.31,0,0,0,1.44-2,7.86,7.86,0,0,0,.75-4.78,8.35,8.35,0,0,0-.28-1.2l-.57-1.75-1.16-3.54-2.33-7.06-4.65-14.12,4.88,2.6q-11.24,3.18-22.19,7.31l2.39-5,5.23,15.87a6.89,6.89,0,0,1,.66,2c.06.71.09,1.43.11,2.16,0,1.46-.08,3-.15,4.45-.05.75-.09,1.49-.1,2.23a10.17,10.17,0,0,0,.13,2.09A6.87,6.87,0,0,0,861.65,541.41Zm0,0a35.47,35.47,0,0,1-2.83-3.19c-.46-.58-.91-1.25-1.34-1.82s-.92-1.16-1.4-1.73c-1-1.16-1.92-2.3-2.77-3.49-.42-.59-.82-1.19-1.19-1.8a7.06,7.06,0,0,1-.66-2l-5.22-15.86-1.2-3.65,3.59-1.35q11.25-4.25,22.84-7.52l3.68-1,1.2,3.64L881,515.73l2.32,7.06,1.17,3.53.58,1.79a16.25,16.25,0,0,1,.57,2.41,15.88,15.88,0,0,1-1.51,9.66,16.93,16.93,0,0,1-6.88,7,11.65,11.65,0,0,1-9.32-.9,21.15,21.15,0,0,1-3.46-2.35C863.46,543.1,862.54,542.28,861.65,541.41Z" transform="translate(-336 -99)"/><path class="cls-1" d="M940.47,528.59a11.85,11.85,0,0,0,20.2-8.46l-.12-27.76c-3.93-.14-7.88-.23-11.84-.21s-7.93.14-11.86.31l.11,27.76A11.84,11.84,0,0,0,940.47,528.59Z" transform="translate(-336 -99)"/><path class="cls-2" d="M940.47,528.59a6.84,6.84,0,0,0,6.33,1.83,11.24,11.24,0,0,0,5.06-2.89,5.68,5.68,0,0,1,.44-.42c.16-.1.32-.2.49-.29a3.42,3.42,0,0,0,1-.57,9,9,0,0,0,1.55-1.71,9.62,9.62,0,0,0,1-2.07,9,9,0,0,0,.33-2.27l-.11-27.81,3.85,4-11.69-.21-11.68.31,3.82-4,.07,18.53c0,.77,0,1.54.05,2.32a6.33,6.33,0,0,1,0,1.15,6.67,6.67,0,0,1-.25,1.16,36,36,0,0,1-1.55,4.63,7.84,7.84,0,0,0-.77,4.29A6.92,6.92,0,0,0,940.47,528.59Zm0,0a34.5,34.5,0,0,1-3.14-3.57,16.66,16.66,0,0,1-2.62-4.73,39.26,39.26,0,0,1-1.6-4.64,7.88,7.88,0,0,1-.25-1.15,6.4,6.4,0,0,1,0-1.16c.06-.77,0-1.55,0-2.32l-.07-18.53,0-3.91,3.84-.1,12-.32,12,.22,3.83.07,0,3.91.11,27.86a15.53,15.53,0,0,1-9.81,14.5,12,12,0,0,1-4.58,0,16.72,16.72,0,0,1-2.11-.62,15.19,15.19,0,0,1-1.9-.92A30.24,30.24,0,0,1,940.47,528.59Z" transform="translate(-336 -99)"/><path class="cls-1" d="M1019.38,540.76A11.86,11.86,0,0,0,1039,536l8.49-26.51q-11.09-4.06-22.58-7.22l-8.48,26.5A11.85,11.85,0,0,0,1019.38,540.76Z" transform="translate(-336 -99)"/><path class="cls-2" d="M1019.38,540.76a6.8,6.8,0,0,0,5.91,1.9,10.23,10.23,0,0,0,5-2.53c.15-.15.3-.26.45-.39a5.09,5.09,0,0,1,.41-.4,3.94,3.94,0,0,1,.44-.31,5.44,5.44,0,0,0,.5-.22,3.51,3.51,0,0,0,.87-.63,6.73,6.73,0,0,0,.75-.76,8.47,8.47,0,0,0,1.15-1.8,4.5,4.5,0,0,0,.2-.51l.1-.25,0-.12.06-.2.5-1.54,7.93-24.78,2.43,5q-11-4-22.25-7.12l4.86-2.64-6.23,19.46-.78,2.43c-.13.41-.27.81-.38,1.22s-.17.84-.31,1.24a4.89,4.89,0,0,1-.61,1.15l-.35.56a5.43,5.43,0,0,1-.34.47,12.63,12.63,0,0,0-1.21,1.71,8.06,8.06,0,0,0-1.19,4.56A6.92,6.92,0,0,0,1019.38,540.76Zm0,0a35.33,35.33,0,0,1-3.44-4,14.88,14.88,0,0,1-2.65-5.46A11.08,11.08,0,0,1,1013,528l.06-1.41a5.34,5.34,0,0,1,.17-1.28c.13-.41.33-.79.48-1.19s.26-.81.39-1.22l.78-2.43,6.24-19.46,1.16-3.65,3.7,1q11.6,3.18,22.9,7.33l3.6,1.32-1.17,3.65-7.93,24.78-.5,1.54-.06.2-.1.25-.19.51a9.71,9.71,0,0,1-.41,1,16.66,16.66,0,0,1-2.32,3.66,20.28,20.28,0,0,1-3.22,2.92,6.21,6.21,0,0,1-1.88,1.09,10.64,10.64,0,0,1-2.15.43,11.17,11.17,0,0,1-4.21-.37,13.38,13.38,0,0,1-3.62-1.61A30.88,30.88,0,0,1,1019.38,540.76Z" transform="translate(-336 -99)"/><path class="cls-1" d="M1090.66,576.69a10.5,10.5,0,0,0,1.43,1.21,11.84,11.84,0,0,0,16.54-2.69l16.23-22.53q-9.3-7.32-19.22-13.87l-16.24,22.55A11.84,11.84,0,0,0,1090.66,576.69Z" transform="translate(-336 -99)"/><path class="cls-2" d="M1090.66,576.69c.38.32.78.64,1.19.93a6.41,6.41,0,0,0,1.33.68,7,7,0,0,0,2.93.35,9.45,9.45,0,0,0,4.89-2.11c.31-.24.6-.5.88-.73a6.24,6.24,0,0,1,.78-.7c.28-.17.6-.27.89-.44a5.74,5.74,0,0,0,.79-.61c.21-.25.48-.45.68-.73l.31-.39c.11-.13.28-.39.42-.57l1.76-2.45,14.11-19.58.77,5.48q-9.2-7.23-19-13.67l5.45-1-13,18.06-3.24,4.51c-.15.28-.28.56-.41.83a4.17,4.17,0,0,1-.63.72,13.2,13.2,0,0,0-1.35,1.68,8.58,8.58,0,0,0-1.63,4.77A6.85,6.85,0,0,0,1090.66,576.69Zm0,0a33.26,33.26,0,0,1-3.73-4.42,16.73,16.73,0,0,1-1.62-2.83,13.18,13.18,0,0,1-.94-3.38,12.33,12.33,0,0,1-.1-1.83,13.13,13.13,0,0,1,.22-1.85c.07-.3.12-.61.21-.92a4.34,4.34,0,0,1,.36-.86,12.61,12.61,0,0,1,1.06-1.53l3.26-4.53,13-18.06,2.24-3.12,3.21,2.11q10,6.63,19.49,14.06l3,2.38-2.24,3.11L1114,574.6l-1.77,2.44c-.16.22-.26.38-.47.65l-.62.78a17.52,17.52,0,0,1-1.39,1.47c-.51.43-1,.88-1.56,1.27a9.09,9.09,0,0,1-1.68,1.15,9.81,9.81,0,0,1-4,.7,12.89,12.89,0,0,1-7-2.34,28,28,0,0,1-2.62-2C1092.11,578.08,1091.42,577.34,1090.66,576.69Z" transform="translate(-336 -99)"/><path class="cls-1" d="M1146.15,631.51a11.12,11.12,0,0,0,1.22,1.42,11.85,11.85,0,0,0,15.34,1.13l22.41-16.42q-6.61-9.85-14-19.11L1148.7,615A11.84,11.84,0,0,0,1146.15,631.51Z" transform="translate(-336 -99)"/><path class="cls-2" d="M1146.15,631.51a8.16,8.16,0,0,0,2.14,1.92,6.92,6.92,0,0,0,2.71.85,7.74,7.74,0,0,0,2.73-.24,9.91,9.91,0,0,0,2.33-.9,16.44,16.44,0,0,0,1.85-1.13c.53-.38,1.22-.36,1.76-.73.14-.08.27-.18.41-.27a4.64,4.64,0,0,0,.46-.31l1.17-.86,2.34-1.71,18.71-13.72-1,5.46q-6.51-9.71-13.83-18.84l5.49.73-18.7,13.7-2.34,1.72-1.17.86c-.23.16-.3.24-.44.34l-.37.3a3.87,3.87,0,0,0-.62.73,2.31,2.31,0,0,1-.64.72,13.81,13.81,0,0,0-1.68,1.41,9.28,9.28,0,0,0-2.57,4.52A7,7,0,0,0,1146.15,631.51Zm0,0a34.16,34.16,0,0,1-3.12-5.18,14.07,14.07,0,0,1-1.42-6.91,12.13,12.13,0,0,1,1-3.73c.49-1.25,1.65-2,2.52-2.94l.74-.62c.24-.19.53-.43.7-.55l1.17-.85L1150,609l18.7-13.71,3.09-2.26,2.4,3q7.52,9.39,14.22,19.38l2.15,3.18-3.1,2.27-18.71,13.72-2.34,1.71-1.17.86c-.16.13-.47.33-.73.5s-.53.37-.82.53a10.91,10.91,0,0,1-3.54,1.56,11.32,11.32,0,0,1-3.86-.2,13.32,13.32,0,0,1-6.18-3.47,28.43,28.43,0,0,1-2.17-2.26C1147.31,633.05,1146.78,632.24,1146.15,631.51Z" transform="translate(-336 -99)"/><path class="cls-1" d="M1181,699.2a11.63,11.63,0,0,0,2.9,4.7,11.85,11.85,0,0,0,12.06,2.85l26.43-8.71q-3.24-11.46-7.41-22.52l-26.44,8.71A11.85,11.85,0,0,0,1181,699.2Z" transform="translate(-336 -99)"/><path class="cls-2" d="M1181,699.2a6.73,6.73,0,0,0,3.75,4.14,9.24,9.24,0,0,0,5.18.48,17.48,17.48,0,0,0,2.1-.51c.63-.19,1.28.05,1.91-.16a2.39,2.39,0,0,0,.46-.12,5.34,5.34,0,0,0,.55-.16l1.38-.46,2.75-.9,22.06-7.27-2.6,4.89q-3.18-11.25-7.31-22.2l5,2.39-22.06,7.27-2.75.91L1190,688a5.57,5.57,0,0,0-.54.2l-.45.17a4.28,4.28,0,0,0-.82.5,2,2,0,0,1-.82.48,15.1,15.1,0,0,0-2,.83,9.26,9.26,0,0,0-3.85,3.5A7,7,0,0,0,1181,699.2Zm0,0a34.06,34.06,0,0,1-1.37-5.9,13.94,13.94,0,0,1,.8-7,11.61,11.61,0,0,1,2.07-3.26c.85-1,2.18-1.4,3.3-2l.91-.35a8,8,0,0,1,.82-.3l1.38-.46,2.76-.91,22.06-7.27,3.64-1.2,1.35,3.59q4.24,11.25,7.52,22.84l1,3.69-3.65,1.2-22.05,7.26-2.76.91-1.38.46c-.19.07-.54.17-.84.25a7.62,7.62,0,0,1-.94.24,10.5,10.5,0,0,1-3.86.41,11.53,11.53,0,0,1-3.61-1.39,13.32,13.32,0,0,1-4.82-5.2A32.77,32.77,0,0,1,1181,699.2Z" transform="translate(-336 -99)"/><path class="cls-1" d="M961.57,735.05a11.86,11.86,0,0,0-23.71.1l.17,40.27,23.71-.1Z" transform="translate(-336 -99)"/><path class="cls-2" d="M961.57,735.05a7.8,7.8,0,0,0-1.43-4.52,8,8,0,0,0-3.6-2.77,10.17,10.17,0,0,0-4-.69,10.86,10.86,0,0,0-1.76.16c-.28,0-.56.12-.82.13s-.53,0-.8,0a7.43,7.43,0,0,0-5.55,2.78,8,8,0,0,0-1.46,2.83,8.33,8.33,0,0,0-.28,1.57v.41l0,.2v1.51L942,775.4l-4-4,23.71-.1-4,4-.1-20.13a8.87,8.87,0,0,1,0-2.52c.16-.84.35-1.68.56-2.51.43-1.68,1-3.36,1.51-5A30.11,30.11,0,0,0,961.57,735.05Zm0,0a30.08,30.08,0,0,0,1.92,10.06c.54,1.68,1.11,3.35,1.55,5,.22.83.41,1.67.59,2.51a8.87,8.87,0,0,1,0,2.52l.08,20.13v4l-4,0-23.7.1h-4l0-4-.16-38.74v-1.52l0-.4,0-.8a15.66,15.66,0,0,1,.55-3.19,15.74,15.74,0,0,1,8-9.75,15.58,15.58,0,0,1,3-1.19,13.89,13.89,0,0,1,1.58-.35c.53-.09,1.06-.21,1.6-.26a6.79,6.79,0,0,1,3.22.28,8.81,8.81,0,0,1,1.51.56,9.57,9.57,0,0,1,1.42.74A12.83,12.83,0,0,1,959,725.1a17.28,17.28,0,0,1,2,5.06A22.4,22.4,0,0,1,961.57,735.05Z" transform="translate(-336 -99)"/></g></svg>