<svg id="Layer_1" data-name="Layer 1" xmlns="http://www.w3.org/2000/svg" xmlns:xlink="http://www.w3.org/1999/xlink"
    viewBox="0 0 321.55 280">
    <defs>
        <style>
            .cls-1 {
                fill: #216cff;
            }

            .cls-2 {
                fill: #25b800;
            }

            .cls-3 {
                fill: url(#radial-gradient);
            }

            .cls-4 {
                fill: #ff1414;
            }

            .cls-5 {
                fill: #78332c;
            }

            .cls-6 {
                fill: url(#radial-gradient-2);
            }

            .cls-7 {
                fill: #fff;
            }

            .cls-8 {
                fill: #1a1a1a;
            }

            .cls-9 {
                fill: #29b800;
            }

            .cls-10 {
                fill: #ccc;
            }

            .cls-11 {
                fill: #f7361c;
            }
        </style>
        <radialGradient id="radial-gradient" cx="-792.5" cy="683.98" r="1"
            gradientTransform="matrix(0, 266.5, 266.5, 0, -182115.1, 211209.49)" gradientUnits="userSpaceOnUse">
            <stop offset="0" stop-color="#fcfcfc" />
            <stop offset="0.29" stop-color="#f8f8f8" />
            <stop offset="0.66" stop-color="#ebebeb" />
            <stop offset="0.99" stop-color="#d2d2d2" />
        </radialGradient>
        <radialGradient id="radial-gradient-2" cx="-756.81" cy="662.31" r="1"
            gradientTransform="matrix(21.35, 0, 0, -21.35, 16319.98, 14306.28)" gradientUnits="userSpaceOnUse">
            <stop offset="0" stop-color="#ff6400" />
            <stop offset="0.46" stop-color="#ff4a00" />
            <stop offset="1" stop-color="red" />
        </radialGradient>
    </defs>
    <title>joker</title>
    <g id="b5">
        <path class="cls-1" d="M27.36,121.23A15.22,15.22,0,1,0,12.14,106,15.21,15.21,0,0,0,27.36,121.23Z"
            transform="translate(-4.23 0)" />
    </g>
    <g id="g5">
        <path class="cls-2" d="M302.66,121.23A15.22,15.22,0,1,1,317.88,106,15.21,15.21,0,0,1,302.66,121.23Z"
            transform="translate(-4.23 0)" />
    </g>
    <g id="b4">
        <path class="cls-1" d="M75.76,47.92A15.22,15.22,0,1,0,60.54,32.7,15.21,15.21,0,0,0,75.76,47.92Z"
            transform="translate(-4.23 0)" />
    </g>
    <g id="g4">
        <path class="cls-2" d="M254.26,47.92A15.22,15.22,0,1,1,269.48,32.7,15.21,15.21,0,0,1,254.26,47.92Z"
            transform="translate(-4.23 0)" />
    </g>
    <g id="b3">
        <path class="cls-1"
            d="M51.48,86.29c.66-11-9.38-20.53-22.42-21.31S4.92,72.47,4.26,83.46,13.64,104,26.68,104.77,50.82,97.28,51.48,86.29Z"
            transform="translate(-4.23 0)" />
    </g>
    <g id="g3">
        <path class="cls-2"
            d="M278.54,86.29c-.66-11,9.38-20.53,22.42-21.31s24.14,7.49,24.8,18.48-9.38,20.53-22.42,21.31S279.2,97.28,278.54,86.29Z"
            transform="translate(-4.23 0)" />
    </g>
    <g id="b2">
        <path class="cls-1"
            d="M67.11,62.62C77,57.7,80.2,44.24,74.36,32.55S55.8,15.39,46,20.32,32.87,38.7,38.71,50.38,57.27,67.54,67.11,62.62Z"
            transform="translate(-4.23 0)" />
    </g>
    <g id="g2">
        <path class="cls-2"
            d="M262.91,62.62c-9.84-4.92-13.09-18.38-7.25-30.07s18.56-17.16,28.41-12.23,13.08,18.38,7.24,30.06S272.75,67.54,262.91,62.62Z"
            transform="translate(-4.23 0)" />
    </g>
    <g id="b1">
        <path class="cls-1"
            d="M55.44,71.93c6.47-9.81,1.94-24.21-10.12-32.17s-27.09-6.47-33.56,3.33S9.82,67.3,21.88,75.26,49,81.73,55.44,71.93Z"
            transform="translate(-4.23 0)" />
    </g>
    <g id="g1">
        <path class="cls-2"
            d="M274.58,71.93c-6.47-9.81-1.94-24.21,10.13-32.17s27.08-6.47,33.55,3.33,1.94,24.21-10.12,32.17S281.05,81.73,274.58,71.93Z"
            transform="translate(-4.23 0)" />
    </g>
    <g id="face">
        <path class="cls-3" d="M305,140.16a140,140,0,1,1-5.44-38.8A140,140,0,0,1,305,140.16Z"
            transform="translate(-4.23 0)" />
    </g>
    <g id="mouthOutline">
        <path class="cls-4"
            d="M164.94,236.13c-15.52,0-24.61-6.37-29.5-11.71a31.24,31.24,0,0,1-7.17-12.59,8,8,0,0,1,13.5-7.5c.28.28,8.34,8.06,23.17,8.06s22.85-7.78,23.18-8.11a8,8,0,0,1,13,2.43,8,8,0,0,1,.43,5.1C199.52,220.22,189.21,236.13,164.94,236.13Z"
            transform="translate(-4.23 0)" />
    </g>
    <g id="mouth">
        <path class="cls-5"
            d="M136,209.91s10.19,10.48,28.91,10.48,28.87-10.48,28.87-10.48-4.46,18.22-28.87,18.22S136,209.91,136,209.91Z"
            transform="translate(-4.23 0)" />
    </g>
    <g id="nose">
        <path class="cls-6" d="M164.54,192A19.5,19.5,0,1,0,145,172.5,19.5,19.5,0,0,0,164.54,192Z"
            transform="translate(-4.23 0)" />
    </g>
    <path id="leftEyeW" class="cls-7"
        d="M141.57,128.75v10.06a37.64,37.64,0,0,0-7.49-3.09,53.63,53.63,0,0,0-15.76-2.34A56.52,56.52,0,0,0,104,135.46,86.26,86.26,0,0,0,89,141V128.75a30.66,30.66,0,0,1,18.22-12.18,34.22,34.22,0,0,1,8-.92,32.3,32.3,0,0,1,19,5.9A28.08,28.08,0,0,1,141.57,128.75Z"
        transform="translate(-4.23 0)" />
    <path id="leftEyeB" class="cls-8"
        d="M135.81,128.32a16.52,16.52,0,0,1-1.73,7.4,53.63,53.63,0,0,0-15.76-2.34A56.52,56.52,0,0,0,104,135.46a16.68,16.68,0,0,1,3.25-18.89,34.22,34.22,0,0,1,8-.92,32.3,32.3,0,0,1,19,5.9A16.66,16.66,0,0,1,135.81,128.32Z"
        transform="translate(-4.23 0)" />
    <path id="leftEye" class="cls-7" d="M119.37,127.53a4.17,4.17,0,1,0-4.17-4.17A4.17,4.17,0,0,0,119.37,127.53Z"
        transform="translate(-4.23 0)" />
    <path id="leftEyeDown" class="cls-9"
        d="M126.11,139A133.22,133.22,0,0,1,117,175a133.55,133.55,0,0,1-9-35.34,45.24,45.24,0,0,1,18.1-.64Z"
        transform="translate(-4.23 0)" />
    <path id="leftEyeUp" class="cls-9"
        d="M115.32,110.65a39.21,39.21,0,0,0-7.26.65,133.1,133.1,0,0,1,9-34.92,133.08,133.08,0,0,1,9,35.76A39,39,0,0,0,115.32,110.65Z"
        transform="translate(-4.23 0)" />
    <path id="rightEyeW" class="cls-7"
        d="M187.73,128.75v10.06a37.64,37.64,0,0,1,7.49-3.09A53.63,53.63,0,0,1,211,133.38a56.52,56.52,0,0,1,14.28,2.08,86.26,86.26,0,0,1,15,5.54V128.75A30.69,30.69,0,0,0,222,116.57a34.22,34.22,0,0,0-8-.92,32.3,32.3,0,0,0-19,5.9A28.08,28.08,0,0,0,187.73,128.75Z"
        transform="translate(-4.23 0)" />
    <path id="rightEyeB" class="cls-8"
        d="M193.49,128.32a16.52,16.52,0,0,0,1.73,7.4A53.63,53.63,0,0,1,211,133.38a56.52,56.52,0,0,1,14.28,2.08A16.68,16.68,0,0,0,222,116.57a34.22,34.22,0,0,0-8-.92,32.3,32.3,0,0,0-19,5.9A16.34,16.34,0,0,0,193.49,128.32Z"
        transform="translate(-4.23 0)" />
    <path id="rightEye" class="cls-7" d="M210.17,127.53a4.17,4.17,0,1,0-4.17-4.17A4.17,4.17,0,0,0,210.17,127.53Z"
        transform="translate(-4.23 0)" />
    <path id="rightEyeDown" class="cls-10"
        d="M203.19,139a133.22,133.22,0,0,0,9.08,36,133.55,133.55,0,0,0,9-35.34,45.25,45.25,0,0,0-18.1-.64Z"
        transform="translate(-4.23 0)" />
    <path id="rightEyeUp" class="cls-10"
        d="M214,110.65a39.29,39.29,0,0,1,7.26.65,133.1,133.1,0,0,0-9-34.92,133.08,133.08,0,0,0-9.05,35.76A39,39,0,0,1,214,110.65Z"
        transform="translate(-4.23 0)" />
    <g id="leftChin">
        <path class="cls-11" d="M79,219a22,22,0,1,0-22-22A22,22,0,0,0,79,219Z" transform="translate(-4.23 0)" />
    </g>
    <g id="rightChin">
        <path class="cls-11" d="M251,219a22,22,0,1,0-22-22A22,22,0,0,0,251,219Z" transform="translate(-4.23 0)" />
    </g>

    <style>
 
        @keyframes bink{
            0%{opacity: 100%;
            }
            25%{opacity: 50%;
            transform: translate(-20px, -1px)}
            50%{opacity: 25%}
            65%{opacity: 40%}
            100%{opacity: 100%}
        }
        @keyframes move{
            0%{
            }
            25%{transform: translate(-10px, -1px)}
            50%{}
            75%{}
            100%{}
        }
        #leftEye,#rightEye{
            animation: bink 3s infinite ease-in-out;
        }
        #leftEyeB,#rightEyeB{
            animation:move 3s infinite ease-in-out;
        }
    </style>
</svg>