<?xml version="1.0" encoding="utf-8"?>
<!-- Generator: Adobe Illustrator 24.0.1, SVG Export Plug-In . SVG Version: 6.00 Build 0)  -->
<svg version="1.1" id="Layer_1" xmlns="http://www.w3.org/2000/svg" xmlns:xlink="http://www.w3.org/1999/xlink" x="0px" y="0px"
	 viewBox="0 0 323 286" style="enable-background:new 0 0 323 286;" xml:space="preserve">
<style type="text/css">
	.st0{fill:url(#leftEyar_1_);}
	.st1{fill:url(#rightEyar_1_);}
	.st2{fill:url(#SVGID_1_);}
	.st3{fill:#FFFFFF;}
	.st4{fill:#C1C4C9;}
	.st5{fill:#FF0000;}
</style>
<radialGradient id="leftEyar_1_" cx="-778.2531" cy="685.2159" r="1" gradientTransform="matrix(39 22.5 22.9203 -39.7287 14649.4873 44870.3828)" gradientUnits="userSpaceOnUse">
	<stop  offset="0" style="stop-color:#FFFFFF"/>
	<stop  offset="0.31" style="stop-color:#F2F2F2"/>
	<stop  offset="0.5608" style="stop-color:#E6E6E6"/>
	<stop  offset="1" style="stop-color:#CCCCCC"/>
</radialGradient>
<path id="leftEyar" class="st0" d="M30.8,148.7C26,140.7,5.9,122.2,3.7,123c-1.3,0.5-4.8,19.2-1,34.7c2.5,10.3,7.8,20,15,23.5
	c12.6,6.2,24.3-5.5,24.3-5.5S35.3,156.3,30.8,148.7z"/>
<radialGradient id="rightEyar_1_" cx="-808.9566" cy="700.1729" r="1" gradientTransform="matrix(-38.9999 22.5002 22.9206 39.7285 -47276.6172 -9478.0977)" gradientUnits="userSpaceOnUse">
	<stop  offset="0" style="stop-color:#FFFFFF"/>
	<stop  offset="0.31" style="stop-color:#F2F2F2"/>
	<stop  offset="0.5608" style="stop-color:#E6E6E6"/>
	<stop  offset="1" style="stop-color:#CCCCCC"/>
</radialGradient>
<path id="rightEyar" class="st1" d="M293.2,148.7c4.8-8.1,24.9-26.5,27.1-25.7c1.3,0.5,4.8,19.2,1,34.7c-2.5,10.3-7.8,20-15,23.5
	c-12.6,6.2-24.3-5.5-24.3-5.5S288.7,156.3,293.2,148.7z"/>
<g id="face">
	
		<radialGradient id="SVGID_1_" cx="-796.5141" cy="686.9944" r="1" gradientTransform="matrix(1.631842e-14 266.5 266.5 -1.631842e-14 -182921.6563 212284.4844)" gradientUnits="userSpaceOnUse">
		<stop  offset="0" style="stop-color:#FCFCFC"/>
		<stop  offset="0.2881" style="stop-color:#F8F8F8"/>
		<stop  offset="0.6645" style="stop-color:#EBEBEB"/>
		<stop  offset="0.99" style="stop-color:#D2D2D2"/>
	</radialGradient>
	<path class="st2" d="M302,146.2c0,35.4-13.5,69.5-37.7,95.4c-24.2,25.9-57.3,41.6-92.6,44.1c-35.3,2.4-70.3-8.6-97.8-30.9
		c-27.5-22.3-45.6-54.2-50.5-89.3c-4.9-35.1,3.7-70.7,24-99.8s50.9-49.3,85.6-56.6c34.7-7.4,70.8-1.3,101.2,16.9
		c30.4,18.2,52.7,47.3,62.5,81.4C300.2,120,302,133,302,146.2z"/>
</g>
<g id="head">
	<path d="M298.9,116.8c0,0-29.2-33.1-72.1-33.3c-43.6-0.3-64.8,30.3-64.8,30.3s-21.2-30.5-64.8-30.3c-42.9,0.2-72.1,33.3-72.1,33.3
		c0.5-2.5,1.1-4.9,1.8-7.4c8-29.7,25.6-55.9,50-74.6C101.3,16.1,131.2,6,161.9,6h0.1c30.8,0,60.6,10.1,85.1,28.8
		c24.4,18.7,42,44.9,50,74.6C297.7,111.9,298.3,114.3,298.9,116.8z"/>
</g>
<g id="leftEyeW">
	<path class="st3" d="M140.1,162.2c-4.1,15.4-21.2,24.4-37.8,19.9S75.5,161.3,79.6,146L140.1,162.2z"/>
</g>
<path id="leftEye" d="M120.9,159c-0.4,1.6-1.1,3.1-2.1,4.4c-1,1.3-2.2,2.4-3.6,3.3c-1.4,0.8-3,1.4-4.6,1.6c-1.6,0.2-3.3,0.1-4.9-0.3
	c-1.6-0.4-3.1-1.2-4.4-2.2c-1.3-1-2.4-2.3-3.2-3.7c-0.8-1.4-1.3-3-1.5-4.7c-0.2-1.6,0-3.3,0.4-4.9c0.2-0.6,0.4-1.2,0.6-1.8l23.6,6.4
	C121.2,157.8,121.1,158.4,120.9,159z"/>
<g id="rightEyeW">
	<path class="st3" d="M243.1,146c4.1,15.4-6.1,31.7-22.7,36.1c-16.6,4.5-33.7-4.5-37.8-19.9L243.1,146z"/>
</g>
<path id="rightEye" d="M224.9,152.9c0.5,1.6,0.6,3.2,0.4,4.9c-0.2,1.6-0.7,3.2-1.5,4.7c-0.8,1.4-1.9,2.7-3.2,3.7
	c-1.3,1-2.8,1.8-4.4,2.2c-1.6,0.4-3.3,0.5-4.9,0.3c-1.6-0.2-3.2-0.8-4.6-1.6c-1.4-0.8-2.7-2-3.6-3.3c-1-1.3-1.7-2.8-2.1-4.5
	c-0.2-0.6-0.3-1.2-0.4-1.9l23.6-6.3C224.5,151.6,224.7,152.2,224.9,152.9z"/>
<g id="leftChin">
	<path class="st4" d="M104,264c-29.2-13.3-52.2-37.3-64-67c10.7,5.3,29.4,14.2,45.8,18.8C85.8,215.8,91,244,104,264z"/>
</g>
<g id="rightChin">
	<path class="st4" d="M219,264c28.8-13.3,51.4-37.3,63-67c-10.5,5.3-28.9,14.2-45.1,18.8C236.9,215.8,231.8,244,219,264z"/>
</g>
<g id="mouth">
	<path class="st5" d="M219,209.9c-0.2,0.6-14.8,37.5-57.6,37.5s-57.4-37-57.6-37.5c0.4,0.2,8,4,22.5,6.9c3.6,0.7,7.7,1.4,12.1,1.9
		c15.3,1.8,30.7,1.8,46,0c4.5-0.6,8.5-1.2,12.1-1.9C211,213.8,218.6,210,219,209.9z"/>
</g>
<g id="leftTeeth">
	<path class="st3" d="M136.5,233.2c0,0-8.6-7.2-10.2-16.4c3.6,0.7,7.7,1.4,12.1,1.9C137.5,222,136.2,228,136.5,233.2z"/>
</g>
<g id="rightTeeth">
	<path class="st3" d="M196.5,216.8c-1.6,9.2-10.2,16.4-10.2,16.4c0.3-5.1-1-11.2-1.9-14.4C188.9,218.2,192.9,217.5,196.5,216.8z"/>
</g>

<style>
        @keyframes Blink{
            0%{transform: translate(0, 0)}
            20%{transform: translate(0, 0)}
            30%{transform: scale(0);}
            40%{transform: translate(0, 0)}
            100%{transform: translate(0, 0)}
        }
        #leftEye,#rightEye{
            animation:Blink 2.5s infinite ease-in-out;
        }
    </style>
</svg>
