<svg id="Layer_1" data-name="Layer 1" xmlns="http://www.w3.org/2000/svg" xmlns:xlink="http://www.w3.org/1999/xlink"
    viewBox="0 0 280 280">
    <defs>
        <style>
            .cls-1 {
                fill: url(#radial-gradient);
            }

            .cls-2 {
                fill: url(#linear-gradient);
            }

            .cls-3 {
                fill: #78332c;
            }

            .cls-4 {
                fill: #3c3c3c;
            }

            .cls-5 {
                fill: url(#radial-gradient-2);
            }

            .cls-6 {
                fill: #1a1a1a;
            }

            .cls-7 {
                fill: #fff;
            }

            .cls-8 {
                fill: url(#radial-gradient-3);
            }

            .cls-9 {
                fill: url(#linear-gradient-2);
            }

            .cls-10 {
                fill: url(#linear-gradient-3);
            }

            .cls-11 {
                fill: url(#linear-gradient-4);
            }
        </style>
        <radialGradient id="radial-gradient" cx="-817.54" cy="684.01" r="1"
            gradientTransform="matrix(0, 272.5, 272.42, 0, -186198.42, 222786)" gradientUnits="userSpaceOnUse">
            <stop offset="0" stop-color="#32d583" />
            <stop offset="0.21" stop-color="#12b76a" />
            <stop offset="0.66" stop-color="#039855" />
            <stop offset="1" stop-color="#027a48" />
        </radialGradient>
        <linearGradient id="linear-gradient" x1="37.13" y1="83.62" x2="24.63" y2="74.62"
            gradientTransform="matrix(1, 0, 0, -1, 0, 282)" gradientUnits="userSpaceOnUse">
            <stop offset="0" stop-color="#0a7b43" />
            <stop offset="1" stop-color="#0e8e4e" />
        </linearGradient>
        <radialGradient id="radial-gradient-2" cx="-804.22" cy="711.33" r="1"
            gradientTransform="matrix(0, 27, 27, 0, -19113, 21849)" gradientUnits="userSpaceOnUse">
            <stop offset="0" stop-color="#fff" />
            <stop offset="1" stop-color="#e4e7ec" />
        </radialGradient>
        <radialGradient id="radial-gradient-3" cx="-804.22" cy="711.33" r="1"
            gradientTransform="matrix(0, 27, 27, 0, -19019, 21849)" xlink:href="#radial-gradient-2" />
        <linearGradient id="linear-gradient-2" x1="222.44" y1="73.42" x2="243.24" y2="57.31"
            gradientTransform="matrix(1, 0, 0, -1, 0, 282)" gradientUnits="userSpaceOnUse">
            <stop offset="0" stop-color="#0a7b43" />
            <stop offset="1" stop-color="#009048" />
        </linearGradient>
        <linearGradient id="linear-gradient-3" x1="252.23" y1="101.74" x2="264.18" y2="94.38"
            xlink:href="#linear-gradient" />
        <linearGradient id="linear-gradient-4" x1="68.27" y1="252.85" x2="76.87" y2="239.95"
            gradientTransform="matrix(1, 0, 0, -1, 0, 282)" gradientUnits="userSpaceOnUse">
            <stop offset="0" stop-color="#33d986" />
            <stop offset="1" stop-color="#19a65f" />
        </linearGradient>
    </defs>
    <title>greenPlanet</title>
    <g id="face">
        <path class="cls-1" d="M280,140A140,140,0,0,1,140,280H140A140,140,0,0,1,140,0H140A140,140,0,0,1,280,140Z" />
    </g>
    <path class="cls-2"
        d="M38.21,213.84c3.88-2.23,4.07-9.18.43-15.52s-9.75-9.67-13.63-7.44-4.08,9.18-.43,15.52S34.32,216.08,38.21,213.84Z" />
    <g id="mouth">
        <path class="cls-3"
            d="M170.44,223c-11.85.41-14.79-4.86-27.94-4.86-11.95,0-25.27,6.68-33.5,1.87-7.21-4.22-7.9-16.84-2.2-20.36,7.84-4.83,17.82.9,35.47.63,21.42-.33,23.69-6.41,31.65-3.45,6.42,2.39,9.57,9.78,7.4,16.91C179.44,219.87,174,222.85,170.44,223Z" />
    </g>
    <g id="noseR">
        <path class="cls-4"
            d="M137.16,177.66c1.61-3.39.83-7.1-1.74-8.29s-6,.59-7.58,4-.83,7.1,1.74,8.29S135.55,181,137.16,177.66Z" />
    </g>
    <g id="noseL">
        <path class="cls-4"
            d="M142.84,177.66c-1.61-3.39-.83-7.1,1.74-8.29s6,.59,7.58,4,.83,7.1-1.74,8.29S144.45,181,142.84,177.66Z" />
    </g>
    <path id="leftEyeW" class="cls-5" d="M93,162a27,27,0,1,0-27-27A27,27,0,0,0,93,162Z" />
    <path id="leftEyeB" class="cls-6" d="M84,152a8,8,0,1,0-8-8A8,8,0,0,0,84,152Z" />
    <path id="leftEye" class="cls-7" d="M86.7,142a1.5,1.5,0,1,0-1.5-1.5A1.5,1.5,0,0,0,86.7,142Z" />
    <path id="rightEyeW" class="cls-8" d="M187,162a27,27,0,1,0-27-27A27,27,0,0,0,187,162Z" />
    <path id="rightEyeB" class="cls-6" d="M196,134a8,8,0,1,0-8-8A8,8,0,0,0,196,134Z" />
    <path id="rightEye" class="cls-7" d="M198.7,124a1.5,1.5,0,1,0-1.5-1.5A1.5,1.5,0,0,0,198.7,124Z" />
    <path class="cls-9"
        d="M247,199.64c-5.72-4.82-16.73-1.14-24.59,8.2s-9.6,20.81-3.88,25.62,16.73,1.14,24.59-8.2S252.68,204.45,247,199.64Z" />
    <path class="cls-10" d="M262.42,177.9a7.46,7.46,0,1,0,.71,10.52A7.46,7.46,0,0,0,262.42,177.9Z" />
    <path class="cls-11" d="M79.28,32.39a7.45,7.45,0,1,0-3.63,9.89A7.45,7.45,0,0,0,79.28,32.39Z" />

    <style>
        @keyframes Wheel {
            0% {
                transform: rotateZ(0deg);
                transform-origin: Bottom;
                transform-box: fill-box;
            }

            50% {
                transform: rotateZ(360deg);
                transform-origin: Top;
                transform-box: fill-box;
            }

            100% {
                transform: rotateZ(0deg);
                transform-origin: Top;
                transform-box: fill-box;
            }
        }

        @keyframes Wheel2 {
            0% {
                transform: rotateZ(0deg);
                transform-origin: top;
                transform-box: fill-box;
            }

            50% {
                transform: rotateZ(360deg);
                transform-origin: bottom;
                transform-box: fill-box;
            }

            100% {
                transform: rotateZ(0deg);
                transform-origin: bottom;
                transform-box: fill-box;
            }
        }

        #leftEye,#leftEyeB {
            animation: Wheel 2s infinite ease-in-out;

        }
        #rightEye,#rightEyeB {
            animation: Wheel2 2s infinite ease-in-out;

        }

    </style>
</svg>