<svg id="Layer_1" data-name="Layer 1" xmlns="http://www.w3.org/2000/svg" xmlns:xlink="http://www.w3.org/1999/xlink"
    viewBox="0 0 280 280">
    <defs>
        <style>
            .cls-1 {
                fill: url(#radial-gradient);
            }

            .cls-2 {
                fill: #98a2b3;
                fill-opacity: 0.44;
            }

            .cls-3 {
                fill: url(#radial-gradient-2);
            }

            .cls-4 {
                fill: #1a1a1a;
            }

            .cls-5 {
                fill: #fff;
            }

            .cls-6 {
                fill: url(#radial-gradient-3);
            }

            .cls-7 {
                fill: #333;
                fill-rule: evenodd;
            }
        </style>
        <radialGradient id="radial-gradient" cx="-817.57" cy="683.94" r="1"
            gradientTransform="matrix(0, 278.22, 278.22, 0, -190145.34, 227471.04)" gradientUnits="userSpaceOnUse">
            <stop offset="0" stop-color="#f2f4f7" />
            <stop offset="0.41" stop-color="#e4e7ec" />
            <stop offset="0.71" stop-color="#d0d5dd" />
            <stop offset="0.99" stop-color="#98a2b3" />
        </radialGradient>
        <radialGradient id="radial-gradient-2" cx="-804.22" cy="711.33" r="1"
            gradientTransform="matrix(0, 27, 27, 0, -19116, 21848)" gradientUnits="userSpaceOnUse">
            <stop offset="0" stop-color="#fff" />
            <stop offset="1" stop-color="#e4e7ec" />
        </radialGradient>
        <radialGradient id="radial-gradient-3" cx="-804.22" cy="711.33" r="1"
            gradientTransform="matrix(0, 27, 27, 0, -19016, 21848)" xlink:href="#radial-gradient-2" />
    </defs>
    <title>pilli</title>
    <path id="face" class="cls-1" d="M280,140.12a140,140,0,1,1-5.44-38.78A140,140,0,0,1,280,140.12Z"
        transform="translate(0 0)" />
    <path id="leftEyeG" class="cls-2" d="M90,171a37,37,0,1,0-37-37A37,37,0,0,0,90,171Z" transform="translate(0 0)" />
    <path id="leftEyeW" class="cls-3" d="M90,161a27,27,0,1,0-27-27A27,27,0,0,0,90,161Z" transform="translate(0 0)" />
    <path id="leftEyeB" class="cls-4" d="M90,139a8,8,0,1,0-8-8A8,8,0,0,0,90,139Z" transform="translate(0 0)" />
    <path id="leftEye" class="cls-5" d="M92.7,129a1.5,1.5,0,1,0-1.5-1.5A1.5,1.5,0,0,0,92.7,129Z"
        transform="translate(0 0)" />
    <path id="rightEyeG" class="cls-2" d="M190,171a37,37,0,1,0-37-37A37,37,0,0,0,190,171Z" transform="translate(0 0)" />
    <path id="rightEyeW" class="cls-6" d="M190,161a27,27,0,1,0-27-27A27,27,0,0,0,190,161Z" transform="translate(0 0)" />
    <path id="rightEyeB" class="cls-4" d="M190,139a8,8,0,1,0-8-8A8,8,0,0,0,190,139Z" transform="translate(0 0)" />
    <path id="rightEye" class="cls-5" d="M192.7,129a1.5,1.5,0,1,0-1.5-1.5A1.5,1.5,0,0,0,192.7,129Z"
        transform="translate(0 0)" />
    <g id="mouth">
        <path class="cls-7"
            d="M141.78,225.07v5.66a2,2,0,0,1-2,2,2,2,0,0,1-2-2v-5.66c-6.76-.06-13.45-.39-20-1l-.59,5.59a2,2,0,0,1-2,1.79H115a2,2,0,0,1-1.35-.73,2.27,2.27,0,0,1-.36-.69,2.07,2.07,0,0,1-.07-.78l.58-5.58c-6.75-.75-13.36-1.79-19.79-3.11L92.84,226a2,2,0,0,1-.7,1.14,2,2,0,0,1-1.26.45,2,2,0,0,1-.42-.05,2,2,0,0,1-1.54-2.37l1.16-5.46a189.26,189.26,0,0,1-19.29-5.41L69,219.8a2.06,2.06,0,0,1-.72,1,2,2,0,0,1-1.18.39,2.16,2.16,0,0,1-.62-.09,2.13,2.13,0,0,1-.69-.38,2,2,0,0,1-.69-1.37,2,2,0,0,1,.09-.78L67,213a153.07,153.07,0,0,1-23.23-10.67,2,2,0,0,1,.48-3.68,2,2,0,0,1,1.52.2,148.75,148.75,0,0,0,22.47,10.32L69.92,204a2,2,0,0,1,3.69-.3,2,2,0,0,1,.12,1.53L72,210.49a189.21,189.21,0,0,0,18.89,5.3l1.19-5.62a2,2,0,0,1,.29-.75,2.17,2.17,0,0,1,.56-.57,1.93,1.93,0,0,1,.74-.3,2,2,0,0,1,.8,0,2.17,2.17,0,0,1,.73.32,2,2,0,0,1,.55.58,2,2,0,0,1,.28.75,2,2,0,0,1,0,.8l-1.19,5.63c6.29,1.29,12.76,2.31,19.37,3l.58-5.66a2,2,0,0,1,.73-1.36,2.08,2.08,0,0,1,1.48-.44,2,2,0,0,1,1.79,2.21l-.59,5.66c6.42.6,13,.93,19.59,1v-5.65a2,2,0,0,1,2-2,2,2,0,0,1,2,2v5.65c6.62,0,13.17-.38,19.6-1l-.6-5.67a2,2,0,1,1,4-.41l.6,5.67c6.59-.73,13.05-1.74,19.34-3l-1.2-5.65a1.94,1.94,0,0,1,.32-1.46,2,2,0,0,1,3.59.63l1.2,5.64a185.29,185.29,0,0,0,18.92-5.3l-1.7-5.24a2,2,0,0,1-.13-.8,1.91,1.91,0,0,1,.19-.78,2.06,2.06,0,0,1,.49-.64,1.88,1.88,0,0,1,.7-.4,1.82,1.82,0,0,1,.8-.09,2,2,0,0,1,.78.23,2.2,2.2,0,0,1,.61.53,2,2,0,0,1,.36.72l1.67,5.15a149.49,149.49,0,0,0,22.56-10.36,2,2,0,0,1,1.52-.2,2,2,0,0,1,1.22.94,2,2,0,0,1,.2,1.52,2,2,0,0,1-.94,1.22A153.65,153.65,0,0,1,212.56,213l1.82,5.6a2.26,2.26,0,0,1,.1.78,2.21,2.21,0,0,1-.21.75,2.24,2.24,0,0,1-.49.62,2,2,0,0,1-.68.38,2.16,2.16,0,0,1-.62.09,2,2,0,0,1-1.17-.38,2,2,0,0,1-.73-1l-1.79-5.51a190.74,190.74,0,0,1-19.33,5.4l1.15,5.45a2.06,2.06,0,0,1,0,.89,2,2,0,0,1-.4.8,2.1,2.1,0,0,1-.71.55,2.17,2.17,0,0,1-.79.18h-.08a2,2,0,0,1-1.21-.44,2,2,0,0,1-.71-1.15l-1.15-5.44c-6.42,1.32-13,2.35-19.76,3.1l.59,5.57a2,2,0,0,1-.43,1.47,2.22,2.22,0,0,1-.6.5,2.18,2.18,0,0,1-.75.23h-.22a2,2,0,0,1-2-1.79l-.59-5.58C155.23,224.68,148.54,225,141.78,225.07Z"
            transform="translate(0 0)" />
    </g>

    <style>
        @keyframes bink {
            0% {
                transform: scale(1,1);
                transform-origin: center;
                transform-box: fill-box;
            }

            50% {
                transform: scale(2, 2);
                transform-origin: center;
                transform-box: fill-box;
            }

            100% {
                transform: scale(1,1);
                transform-origin: center;
                transform-box: fill-box;
            }
        }

        #leftEye,#rightEye,#leftEyeB,#rightEyeB {
            animation: bink 4s infinite ease-in-out;
        }
    </style>
</svg>