<svg id="Layer_1" data-name="Layer 1" xmlns="http://www.w3.org/2000/svg" xmlns:xlink="http://www.w3.org/1999/xlink" viewBox="0 0 5000 3000">
<defs><style>.cls-1{fill:url(#linear-gradient);}.cls-2{fill:#f9f4dc;}.cls-3{fill:#f7eeb2;}.cls-4{fill:#f9eb85;}.cls-5{fill:#2e243a;}.cls-6{fill:url(#linear-gradient-2);}.cls-7{fill:#130027;}.cls-8{fill:url(#linear-gradient-3);}</style><linearGradient id="linear-gradient" x1="2500.36" y1="3012.68" x2="2499.68" y2="145.57" gradientUnits="userSpaceOnUse"><stop offset="0" stop-color="#deceef"/><stop offset="0.1" stop-color="#d5c4e7"/><stop offset="0.28" stop-color="#bea7d2"/><stop offset="0.51" stop-color="#977ab0"/><stop offset="0.78" stop-color="#633b81"/><stop offset="1" stop-color="#330256"/></linearGradient><linearGradient id="linear-gradient-2" x1="2500.17" y1="3008.02" x2="2499.83" y2="1546.45" gradientUnits="userSpaceOnUse"><stop offset="0" stop-color="#5b446b"/><stop offset="1" stop-color="#401d56"/></linearGradient><linearGradient id="linear-gradient-3" x1="2500.13" y1="3005.15" x2="2499.92" y2="2107.92" gradientUnits="userSpaceOnUse"><stop offset="0" stop-color="#4b2e5b"/><stop offset="1" stop-color="#29013a"/></linearGradient></defs><title>vectorstock_38556666 [Converted]</title><rect id="bg" class="cls-1" width="5000" height="3000"/>

<g id="moon"><circle class="cls-2" cx="920" cy="1663.03" r="192.4" transform="translate(-906.48 1137.63) rotate(-45)"/><circle class="cls-3" cx="920" cy="1663.03" r="164.57"/><circle class="cls-4" cx="920" cy="1663.03" r="127.33" transform="translate(-906.48 1137.63) rotate(-45)"/></g>

<g id="t3"><polygon class="cls-5" points="2375.34 1235.58 2381.49 1236.87 2388.33 1235.19 2396.37 1235.8 2392.67 1228.1 2387.4 1222.39 2386.83 1214.42 2383.58 1207.74 2380.16 1201.14 2374.34 1195.69 2372.18 1188.49 2368.77 1181.88 2367.6 1174.2 2361.32 1168.97 2358.05 1162.3 2357.38 1154.38 2354.05 1147.73 2350.11 1143.27 2345.26 1147.28 2344.96 1155.38 2341.66 1162.03 2338.41 1168.72 2333.98 1174.83 2330.64 1181.47 2328.94 1188.89 2325.26 1195.37 2321.78 1201.94 2319.18 1208.93 2315.07 1215.2 2311.52 1221.74 2307.99 1228.3 2305.7 1234.8 2311.89 1233.12 2318.72 1234.91 2326.08 1234.81 2321.41 1240.65 2319.94 1247.45 2318.14 1254.08 2313.13 1259.17 2312.31 1266.28 2307.22 1271.34 2306.13 1277 2312.62 1279 2319.96 1277.98 2318.28 1284.64 2315.64 1291.12 2309.3 1295.83 2306.8 1302.39 2303.9 1310.39 2313.92 1309.63 2323.77 1308.36 2318.05 1314.6 2318.24 1322.27 2312.72 1327.17 2312.19 1334.49 2306.61 1339.39 2304.97 1346.27 2311.99 1347.54 2318.92 1347.24 2325.85 1347.99 2332.78 1348.09 2339.7 1346.72 2346.63 1347.29 2353.56 1346.67 2360.49 1345.98 2367.42 1346.13 2374.35 1344.34 2381.28 1346.26 2388.22 1347.69 2396.7 1347.21 2393.16 1339.61 2390.55 1333.3 2384.95 1328.42 2384.31 1321.16 2380.74 1315.3 2378.53 1310.37 2386.3 1307.34 2395.51 1309.64 2392.61 1302.79 2387.63 1297.43 2384.26 1291.29 2383.67 1283.82 2379.05 1277.11 2387.59 1279.7 2395.27 1277.89 2393.57 1271.08 2390.07 1265.26 2387.12 1259.18 2385.26 1252.57 2382.19 1246.55 2377.57 1241.26 2375.34 1235.58"/><rect class="cls-5" x="2345.52" y="1299.68" width="9.18" height="86.17"/></g>

<g id="t2"><polygon class="cls-5" points="4528.44 1361.14 4534.59 1362.44 4541.42 1360.76 4549.47 1361.37 4545.76 1353.67 4540.49 1347.96 4539.93 1339.99 4536.68 1333.3 4533.25 1326.7 4527.44 1321.26 4525.28 1314.05 4521.87 1307.45 4520.7 1299.77 4514.42 1294.54 4511.15 1287.87 4510.48 1279.94 4507.14 1273.29 4503.2 1268.84 4498.36 1272.85 4498.06 1280.94 4494.76 1287.6 4491.51 1294.28 4487.08 1300.4 4483.74 1307.04 4482.04 1314.46 4478.35 1320.93 4474.88 1327.51 4472.27 1334.5 4468.16 1340.77 4464.62 1347.31 4461.08 1353.87 4458.8 1360.37 4464.98 1358.68 4471.82 1360.48 4479.18 1360.37 4474.51 1366.22 4473.04 1373.01 4471.24 1379.65 4466.23 1384.74 4465.4 1391.84 4460.32 1396.91 4459.23 1402.56 4465.72 1404.57 4473.06 1403.54 4471.38 1410.21 4468.73 1416.69 4462.4 1421.4 4459.89 1427.96 4456.99 1435.95 4467.02 1435.2 4476.87 1433.93 4471.15 1440.17 4471.34 1447.83 4465.81 1452.74 4465.29 1460.06 4459.71 1464.95 4458.07 1471.84 4465.09 1473.11 4472.01 1472.8 4478.94 1473.56 4485.88 1473.66 4492.8 1472.29 4499.73 1472.86 4506.66 1472.24 4513.59 1471.55 4520.52 1471.69 4527.45 1469.91 4534.38 1471.83 4541.32 1473.25 4549.8 1472.78 4546.26 1465.18 4543.65 1458.86 4538.05 1453.99 4537.41 1446.73 4533.84 1440.86 4531.63 1435.94 4539.39 1432.9 4548.61 1435.21 4545.71 1428.35 4540.73 1423 4537.36 1416.86 4536.77 1409.39 4532.15 1402.68 4540.69 1405.26 4548.36 1403.46 4546.67 1396.64 4543.16 1390.83 4540.22 1384.74 4538.36 1378.14 4535.29 1372.11 4530.67 1366.82 4528.44 1361.14"/><rect class="cls-5" x="4498.62" y="1425.25" width="9.18" height="86.17"/></g>

<g id="t4"><polygon class="cls-5" points="3499.96 1113.33 3506.12 1114.63 3512.95 1112.95 3520.99 1113.56 3517.29 1105.86 3512.02 1100.14 3511.45 1092.18 3508.2 1085.49 3504.78 1078.89 3498.96 1073.45 3496.8 1066.24 3493.39 1059.64 3492.23 1051.96 3485.95 1046.73 3482.67 1040.06 3482 1032.13 3478.67 1025.48 3474.73 1021.03 3469.89 1025.04 3469.59 1033.13 3466.28 1039.79 3463.04 1046.47 3458.6 1052.59 3455.26 1059.22 3453.56 1066.65 3449.88 1073.12 3446.4 1079.69 3443.8 1086.69 3439.69 1092.96 3436.14 1099.5 3432.61 1106.06 3430.32 1112.56 3436.51 1110.88 3443.34 1112.67 3450.7 1112.56 3446.04 1118.41 3444.57 1125.2 3442.76 1131.84 3437.75 1136.93 3436.93 1144.03 3431.84 1149.1 3430.75 1154.75 3437.25 1156.76 3444.59 1155.73 3442.9 1162.4 3440.26 1168.88 3433.93 1173.59 3431.42 1180.14 3428.52 1188.14 3438.54 1187.39 3448.39 1186.12 3442.67 1192.36 3442.86 1200.02 3437.34 1204.93 3436.81 1212.25 3431.23 1217.14 3429.59 1224.03 3436.61 1225.3 3443.54 1224.99 3450.47 1225.75 3457.4 1225.85 3464.33 1224.48 3471.26 1225.05 3478.18 1224.43 3485.11 1223.74 3492.05 1223.88 3498.97 1222.1 3505.91 1224.02 3512.84 1225.44 3521.32 1224.97 3517.78 1217.37 3515.17 1211.05 3509.57 1206.18 3508.93 1198.92 3505.37 1193.05 3503.16 1188.13 3510.92 1185.09 3520.14 1187.4 3517.24 1180.54 3512.26 1175.19 3508.89 1169.05 3508.29 1161.58 3503.67 1154.87 3512.22 1157.45 3519.89 1155.65 3518.2 1148.83 3514.69 1143.02 3511.74 1136.93 3509.89 1130.33 3506.82 1124.3 3502.19 1119.01 3499.96 1113.33"/><rect class="cls-5" x="3470.14" y="1177.43" width="9.18" height="86.17"/></g>

<path id="grass1" class="cls-6" d="M5000,1572.37q-1.42,14.84-2.86,29.66l-4.45-8.84L4980,1605.36l-.32-19.44-13,13.09-3.83-10.51,1.66-24.82-6.7-3.24-2.95-13-17.7,25.54,6.19-37.09-22.9,39.45-3-13L4916,1545l-17.73,26.18,1.68-25.58-16.5,23.09,7.9-42.53-9.51,4.32-16.75,24L4875,1506l-15.78,21.52-15.68,21.37-7.59-.69-3.07-13.23,6.17-38.87-9.77,5.21-6.93-2.68-7.5-1.08-20.52,35.55-2.46-15.15-13.05,14.72-4.84-8.46,5.29-37.35-18.82,31.32,2-28.26-3.68-12-11.9,11.67,0-22.65-17.49,28-2.36-15.93-12.83,14.65-3.1-13.84-13.55,16.89-4-11.36-10.88,9.13,7.87-46.66-17.88,30-8,.68-9.28,4.49-.32-22.54-4-11.54-8.45,2-16.82,27.54-6.68-3.33-8.27,1.57-3.78-12.25.64-26-12.44,14.46-3.6-13-7.46-1-14.1,19.9-8.3,1.77,8.44-51.26-8.42,2-8.66,2.8-15.26,24,1.6-30-4.41-10.84-6-5.89L4512.9,1419l1.73-30.91-17.05,30.37-8.24,1.68-12.1,14.45-1.07-22L4468,1414l1.68-31.4L4451,1419.35l-5.61-7,5.68-45.28-9.16,4.78-18.15,35.47-1.69-20.57-.82-23.7-12.32,15.83L4396.82,1394l2.2-34.42-13.61,20.53-14.08,22.4-4.3-11.87-2-20.18-2.86-17.2-18.74,39.37,7.47-54.27-8.45,2.61L4325.35,1375l-2.16-20-7.1-2.17-3.38-15.76-5.55-7.92-6.11-5.92-21,49.5-2.68-18.5-9.76,7.92-3.59-15.26-4.34-12.56-4.78-11-17,35.73,2.63-39.42-3.75-15.16-21.3,52.87,5.28-50.3L4206,1334.86l-5.48-8.5-8.38,3-2-22.58-10.43,11.1-2.93-18.94-5.6-8.31-16.79,37.13-10.52,11.91.78-34.38-2.6-20.81L4127,1315.5l-3.66-16.52-2.36-22.11-10,9.74-18.19,44.88-5.19-10.16-3.75-16.45-11.4,16.45-6.12-6.28-8.41,3.65-4.33-14.21-4.22-14.9-6.93-2.93-10.83,14.52-4.37-14.46-5.54-9.29-8.53,4.31-12.12,20.89-7.36-.87-2.72-22.5-10.73,14.85,1.52-42.88-15.19,36.09-7-2.8-10.52,14.37-1.56-29-7.33-1.12-6.6-4.73-9.63,10.27.91-42.3-9.7,10.6-15.75,41.56,2.7-52.35-13.91,32.64-4.75-14.45-13.58,31.64,1.57-48-8.11,2.9-14.2,35.71-7.53.14,1.1-47-8.81,6.86-4.36-17.72-9.43,10.41-15.23,43.51.62-46.36-6.42-6.47-13.65,35.5-.88-38.94-6.95-3.6-8.81,7.53-8.37,5-10.89,20.53-2.49-30.9-11.44,24.38-9.42,12.2-7.06-2.65-2.2-34-10.11,16.86-7.91,2.78-6.84-4.32-6-9.81-11.71,28.81-3.61-26.6-4.59-20.29-7.48-.27-7.08-3.18-7.82,2.23-7.37-1-13.15,42.18-6-11-5-18.7-4-27.28L3595.57,1222l-3.49-31.85-10,20.18-4.11-27.75-9.88,20-9.64,18.57-5.82-14-5.76-15-10.55,27.67-2.88-41.69-8.18,6.33-11.64,39.65-6.68-7-2.59-47.79-10.54,30.67-5.45-20.6-7.48,0-7.89,4.44-10.54,33.92-3.07-48.82-12,52-2.8-54.34-7.32-2.12-10.42,36.58-6.75-8.62-7.61,2.36-5.13-31.1-9.57,29.13-7.44.33-7.69,4-7.39-.16-7.25-2.66-8.17,12.76-4.78-45-9.13,29.78-7.21-3.7-7.34-1.54-8.84,29.35-4.59-60.1-10,57.18-5-56.76-7.75,6.8-8.39,25.55-6.91-14.69-7.74,9.57-8.11,24.25-6.45-34.71-8.34,38.47-6.19-54.78-7.76,15.25-8.07,39.25-7.08-19.57-7.53,13.79-7-44.18-7.61,27.41-7.36-14.09-7.44-14.09-7.42,15.74-7.23,34.51L3161,1177l-7.34,7.38-7.11,21-7.94-34.86-7.59-7.32-7.35,5.63-6.43,39.67-7.75-14.46-7.84-14.45-6.3,32.57-9-44.65-7.88-10.09-5,56.54-7.6-5.94-9.2-36.79-5.43,38-8.57-21.61-7.92-8.38-8.92-23.26-5.59,29.19-5.42,28.92-9.24-26.07-7.18,3.4-5.61,22.65-10.33-35.75-8.78-15-4.62,32.29-4.94,26.44L2953.33,1187l-5.94,15.14-6.16,12-8.91-14.12-6.87,5.11-7.19,2-7.11,2.62-11.92-36.44-6.38,9.34-3.09,33.91-11.19-28-6,11.25-5.13,16.52-5.6,12.46-7.94-3.64-11.47-26-6.14,8.71-8.74-7.48-2.59,29.48-5.45,11.52L2808.36,1220l-13.56-33.41-7.75-.54,3.24,57.38-16.69-47.53-6.86,4-6.11,7.6,1.13,41.94-9.42-9.22-6.2,6-10.63-14.05-4.43,13.78-5.12,10.29-12.13-19.48-10-10,.39,32.44-9.29-7-13.47-22.74-8.63-3.45-4.82,10.89-8.21-1.79-12.65-17.43-3,17,3,36.89-6.28,4.48-5.87,5.74-6.06,5-17.28-30.7-.27,23.44-11-10-7.48.9-18.07-30.18,1.61,27.77-3.23,13.18-8.72-2.48-6.47,3.82-2.52,14.39-5,7.32-19.76-30.93,1.8,25.05-13-12.63-13-12.18-.75,17.75-7.52,1.15-8.41-1.13-.58,18.53-19-28-4.33,9.08,9,43.26-16.38-21.59-4.05,10-10-5.42-10.17-5.9,3.51,30-17.78-26L2408.26,1305l-4.32,9.46-4.39,9.35,6.65,39.3L2390.86,1343l-11.42-9.67,1.46,25.63-7.71.53-14.13-17.32-3.79,11.32-.52,20.62L2333,1334.93l10.45,51.8L2321.26,1346l-4.72,8.87.58,24.17-2.75,14.76-20.66-37.15-4.09,10.83-11.89-12,8.52,48.08-24.09-48.11-1.92,17.43-9.23-4.33,7,44.35-8.92-3.24-14.6-20.57-3.19,14-15.84-24.61,8.82,51-10.83-9.27-19.37-35.89.05,24.34-9.71-6-3.39,13.73-6.23,4.89-6.24,4.87-8-.64-2.32,17.44-10-7-8.63-2.78-2.64,16.61-9.42-5.35-2,18.8-18.64-35.6,1.72,31.14-17.44-32,5.74,44.72-12.32-15.18-4.51,10.86-14.62-23.08-2.42,17.9-14.77-23.81,1.36,30.85-13.9-21.06-4.25,11.86-.76,24-5.41,8-21.12-46.39-6.77,3.2-5.54,7.52-3.84,13.52-.55,25.21-20.06-43.65,7.65,54.4-7.09,2.27-6.93,2.87-6.9,3-13.46-20.69-11-12-10-8.54-.73,25.28-4,13.3-14.45-24.8-10.34-9.84.77,31.11-16.9-34.2-.54,26.46-4.17,13.09-13.71-22.63-2.08,21-4.9,10.44-4.33,12.69L1824.9,1490l-5.35,8.75-5.82,7-3.76,15L1799.3,1509l-7.47.68-2.23,21-12.22-17.76-9.38-6.8-2.8,18.91-12.62-19.55,5.66,52.4-7.79-.49-12-17.29-12-17.55-4.67,11.79-12.25-18.5-6.12,6,.54,32.94-15.78-33,4.19,48-17-38.15-3,18.8-8.47-3.46-9.17-6.38,2.37,41.23-8.57-3.84L1633.33,1547l-.3,30.48-16.28-36.17,1.61,38.68-7.27,1.48-15.35-32.63-5.5,8.92-1.35,26.58-9.31-7.16-13.42-24.84-2.47,22-7.7-.41-2.68,21.27-16.24-37.34,3.43,47.88-17.6-43.49,1.77,40.89-10.92-14.47-6.84,3.36-2.17,23.93-5.6,8.91-14.5-30.48-7,2.64-8.77-5.25-3.87,16.67-13.73-27.48-6.27,5.89-6.77,3.67-8.68-5,2.55,46-10.7-14.09-4.12,15.89-5.41,10L1395,1601l-6.61,4.48-4,16.53-8.23-3-6.59,4.65-5.56,9.45-3,21.28-18.23-49.8,2.28,46.26-5.93,7.88-9.68-9.84-16.57-42.61-.57,33.26-6.46,5.35-14.06-31-5.12,11.69-5.9,8-6.53,5-7.82-1.18-4.53,14.73-3.61,19.29-7.91-1.59-8.47-4.37-14.79-35.32-.66,33.89-7.24,1.64-10.16-12.76-3.62,19.53-9.58-10-6.09,7.36-6.81,3.77-6.75,4.12-4.67,14.56-14.16-33.17-6.11,7.35-10.3-13.91.4,40.42L1129,1668.74l-6.65,4.64-11.73-21.4-8.24-3.55,2.38,51.08-7.17,2-13.15-28.9-9.94-12.43-.67,35.8-6.08,7.7-11.61-21.16-6.93,3.23-9.89-12.31.51,42.47-11-18.09-2.91,24.59-16.06-45.15-7.4.71,1.74,49.62-17.34-52.4-.45,38-9.39-9.92L965,1678.69l-5.37,11.71-6.55,5.37-3.71,20.82-9.13-8.63-7.91-2.06L930,1734.68l-11.76-23.12-6,8.45-5.87,9.28L896.44,1716l-5.15,13.29-11-19.07-6.63,5-8.43-5-6.34,6.7-8.46-5.24-8.82-7.31-1.35,34.94-14-36.76-5.82,9.7-9.27-10-6.65,5-5.64,10.78-1,37.35-14.23-38.63-6.15,7.92-8-2.63-4.27,18.91-8.26-4.28-4.94,15-8.39-5-7.09,2.55-4.52,17.7-8.8-7.47-12.75-31-6.68,5-2.63,29-7.93-2.42L681.42,1734l-1.55,35.76-9.22-10.19-8.75-7.41-9.94-14.7-1.91,33.94-12.15-28.19-1.11,39-7.85-2-5.37,13.15-8-3.11L600,1740.86l1,52.61-10.44-18.06-5.85,10.27L574.21,1767l-3.54,24.78-8-3.07-5.73,11.19-10.28-17.39-8.19-4.28-11.39-24.61-7.74-1.53-6.39,7-6.35,7.28-8.89-8.92-7.87-2.39-2.06,34.87-5,16.32-6,9.76-15.51-51.84L459.5,1801l-5.91,10.36-12-29.25-3.94,23.26-8-3.24-7,3.05-13-36.54-7.24,1.56-5.87,10.75-8.57-7.25-7,3.23-2.75,31.78-12.44-33.28-3.12,29.4-6.23,8.58-6.42,7.31-5.14,16L335.15,1822l-11.51-27.47-5.48,13.73-7.5,0L307.35,1837l-14.1-45.73-1.49,41.61-13.39-41.05.46,55.45-15.43-55.55-3.92,24.93-6.33,8.13L244,1813.07l-4.13,23.78-9.73-16-7.69-1.45-7.79-2.24L209,1830.52l-8.76-9.22-8.2-5.23-9-10.82-5.54,14.09-2.07,39.46L164.37,1832l-3.29,30.78-8.12-4.65-11.71-31.27-5.26,16.5-11-26.18-5.8,12.49-6.42,7.85-5.07,18.19-7.67-1.44-6.41,8.16L80,1815.06l-.67,52.06-11.44-30.51-9.62-16.67-.9,51-8.55-8.34-6.54,7.38-9.89-19L26.52,1864,14.4,1827l-2.69,38.11Q5.86,1848.74,0,1832.43V3000H5000Z"/>

<g id="t1"><polygon class="cls-7" points="4194.19 2018.05 4201.18 2020.02 4209.19 2017.39 4217.2 2019.46 4226.2 2018.09 4220.07 2011.94 4221.15 2003.58 4218.05 1997.23 4214.66 1991.02 4207.53 1986.6 4206.13 1979.43 4202.77 1973.2 4202.91 1965.29 4195.06 1961.21 4191.9 1954.88 4192.83 1946.59 4189.59 1940.3 4182.72 1935.76 4184.9 1926.87 4177.28 1922.69 4174.34 1916.25 4171.33 1909.85 4170.17 1902.57 4167.3 1896.1 4161.86 1890.86 4159.53 1884.13 4156.87 1877.55 4154.78 1872.85 4152.26 1877.34 4148.69 1883.46 4145.14 1889.6 4143.56 1896.68 4142.33 1903.93 4136.74 1909.09 4134.24 1915.73 4128.39 1920.77 4127.61 1928.23 4126.31 1935.46 4119.98 1940.27 4120.21 1948.22 4113.78 1952.97 4113.81 1960.83 4107.18 1965.49 4105.4 1972.48 4104.48 1979.88 4102.01 1986.54 4093.78 1990.44 4091.53 1997.2 4088.25 2003.48 4086.97 2010.72 4086.04 2016.01 4092.36 2020.41 4100.36 2014.95 4108.38 2019.42 4118.1 2016.08 4110.99 2022.93 4109.83 2030.58 4104.91 2036.42 4102.14 2043.3 4097.87 2049.45 4094.53 2056.06 4093.25 2063.65 4089.25 2069.94 4086.91 2077.03 4084.65 2083.81 4092.23 2083.88 4100.12 2081.09 4107.95 2084.06 4102.98 2089.18 4099.51 2095.08 4097.65 2101.76 4094.15 2107.66 4095.34 2115.8 4088.76 2120.22 4086.75 2126.84 4082.34 2134.56 4091.27 2130.18 4098.2 2134.03 4105.13 2134.1 4114.26 2131.95 4111.83 2141.04 4104.95 2145.62 4104.52 2153.3 4097.09 2157.62 4096.48 2165.22 4091.5 2170.71 4089.33 2177.56 4086.27 2183.99 4081.68 2192.61 4091.39 2193.85 4098.43 2190.92 4105.47 2188.33 4112.51 2192.35 4119.55 2189.39 4126.59 2193.8 4133.64 2193.31 4140.68 2191.02 4147.72 2187.88 4154.76 2193.18 4161.81 2190.39 4168.85 2192.63 4175.89 2191.09 4182.93 2188.14 4189.98 2191.52 4197.02 2193.15 4204.06 2191.95 4211.11 2192.56 4218.16 2189.4 4226.72 2191.9 4220.54 2185.32 4216.43 2179.41 4215.4 2172.01 4214.93 2164.35 4210.69 2158.5 4206.64 2152.56 4202.77 2146.53 4198.95 2140.47 4196.52 2132.68 4204.42 2130.38 4211.35 2130.36 4218.28 2130.68 4224.14 2132.58 4220.48 2127.96 4221.53 2119.89 4217.34 2114.33 4213.98 2108.36 4211.24 2102.11 4210.34 2094.96 4203.32 2090.75 4202.94 2085.13 4209.44 2083.04 4217.32 2084.2 4222.73 2082.27 4224.85 2075.98 4218.52 2070.82 4217.67 2063.02 4210.65 2058.19 4208.43 2051.05 4206.29 2043.86 4201.11 2038.15 4196.76 2032.03 4197.77 2023.4 4194.19 2018.05"/><rect class="cls-7" x="4147.61" y="2118.21" width="14.35" height="134.72"/></g>

<path id="grass2" class="cls-8" d="M0,3000H5000V1871.18q-3.56,18.55-7.12,37.13-.89-11.88-1.79-23.76l-12.21-7-11.42-5.71,2.16,18.59,9.73,32.62-38.64-55.49,7,27.75,19.66,51.66-25.89-32.86,12.06,38.14-28.87-39.06,17.71,49.37-25.09-32.35-32.1-46.44,17.18,49,13.3,42-13.06-9.57-43.67-70.67,25.91,67.74-38.62-61.54-4.13,7.64,31.69,80.85-33.48-52.12-3.09,10,15.48,48.8-43.2-73.59,8.28,34-17.49-20.29,30.28,81.44-7.08,2.13-14.68-14.29L4774,1947.13l22.87,67.23-30.23-49-17.13-20.6-6.85,2,22.26,67.44-.83,16-36.3-64.49,1.07,20.21-12.41-10.61,5.25,30.15-21.66-32.29,6.37,33.08-22.25-34.15,31.46,93.09-16.94-21.59-19.12-27.15,1.86,23.33L4656.9,1999l11.33,46.7-7.45.83,4.25,29.93-19.92-30.21-16.93-23.12,14.26,55.64-11.47-9.36-26.85-49,12.29,51.5-28.28-53.44,25.94,87.89L4594.38,2075l-3.79,10.44-.72,18.75-28.48-55.74-1.77,15.85,1.86,25.92-5.28,6.64L4528.66,2042l16.82,67.85-1.9,16.27-4.85,8.14-10.88-8.91-27.53-56.71,3.33,31.38-22.76-43.91,8.4,46.49,8.75,48.18-24.48-49.71-8.6-3,11.52,57.41-34.89-82.38-8.55-3.27,9.54,52.29-18.35-33.34-10.91-10.68-6.5,3,.8,26.15-10.89-10.81,1.76,29.68-6.44,3.54-8.54-3.28,3.26,35.42-22.86-50.66-11.1-12.21-4.15,11-7.33.32-2.49,16.9,4,39.42L4329.64,2147l-4.44,10.66-13.92-22.74,4.13,41.27-11.22-13.31-8-1.82,2,34.58-10-9-26-69,2.53,37L4251.56,2133l-5.43,7.37-3.93,13.26.41,30.3-5,9.71-11.3-15.19-12.28-19.42-9.45-8.38-1.69,23,4.41,48.48-24.63-71.07-8.15-3.51-1.66,23.88-10-11.23-8.1-3.38,6.51,60.19-4,15.13-25-77.78,3.2,47.07-6.51,3.89-17.19-45,4.52,54.6-17.09-45.44,8.42,74.28-6.72,3.46-7.84-1.92-4.9,12.33-12.11-23.06-14.39-35-4.76,12.85L4043.14,2179l-9.1-9.61,1.88,47.7-1.75,29.59-7.57-1-4.65,14.79-18.49-61.06-3.77,19.43,3.07,58.52-20.41-74.3-1.92,30.84-12-27.31,3.65,64.91-7.78-2.37L3953,2244.6l-15.52-51,7.69,93.77-16.72-59.55-3.41,25-13.5-40.73.2,49.55-15.26-53.91-3.77,23.64L3892,2277l-14.32-49.67,2.49,70.35-20.67-97.81-5.12,15.24-3.26,29.91-3.17,31.53L3837,2248l-6.35,7.23-12.7-44.48-6.79,3-6.17,8.41-3.85,28.78-5,19.76-4.52,24.85-8.3-8.88-13.39-57.34-1.85,51.25-4.64,26-11.49-41.74-9.79-26.27-5.16,21.3-5.84,15-5.47,19.82L3715.14,2258l-5.41,21.05-7.81-6.59-5.46,22-8.66-17.51-5.2,26.77-10.26-39.91-7,2.36-5.53,24.27-8.83-23.34-9.18-30.36-5.9,19.81-3.51,60.9-9.14-31.34-7.18,1.19-8.18-17.62-6.14,20.94-8.31-21.85-6.82,8.36-7.25-.86-9.13-45.67-6,28.54-6.79,10.43-5.77,40.49-9.33-62.36-6.86,9.25-7.69-19.05-6,45.14-7.51-12.22-7.75-26.84-7,7.78-7.54-24.5-6.41,48.54-7.15,4.26-7.51-31.46-6.86,38.83-7.17,11.64-7.31-24.65-7.2,15.84-7.14-40.8-7.33,41.43-7.43,29.13-7.2-11.6-7-21.2-7.74,36.85-6.5-50.27-6.55-34.76-7.39,12.87-8,37.83-7.27,1.19-6.58-23.7-8.61,47.07-7.28-.39-6.05-35.8-5.69-40.95-9,47.11-8.26,24.49-6.08-27.23-8.4,25-7.69,8.33-6.66-12.7-6.5-14.72-5.73-27-10.45,55.83-4.36-48.79-4.26-46.77-11,59.41-6.78-6.79-7.43,2.89-5.95-17.72-8.51,17.43-3.49-48.5-13.83,84.06-6.3-12.65-5-27.31-7.25.12-6-14.08-5.4-19.89-11.19,42.85-3.71-37.06-5-22.42-15.24,80.18,1.38-84.27-13.83,63.19-5.87-13.14-2.67-41.52-7.1-.57-14.22,61.11-1.8-46.88-3.56-30.44-9.91,22.6-15,62.72-5.21-16.81-8.16,6.49-.32-53.18-14.17,51.73-3.09-31.12-3-30.93-5.31-13.39-6.46-4.93-15,53.06-10.07,18.55-8.88,10.13,4.7-78.64-18.89,74.89,4.61-75.67-8.92,10.64-4.88-14.42-5.49-10.37-16,52.5-4.27-17.87L2916,2251.17l-7.88,2.95,1-47.27-2.81-24.69-16.08,48.54-3.91-18.47-12.24,26.38-5.71-8.71-10.9,18.47,7.74-77.69-9.84,13.31-23.31,80.33-7.91,2.25,8.18-76.51-1.83-26.4-7.69,2.2-17.64,49-13,26.35,6.48-64.19-11.73,20.18-15.74,37.82-5.71-7.76,5.64-57.74-24.72,76-7.59.36-2.28-22.35-7.3-.73,10.57-75.51-14,27.64L2703,2238.12l5.61-53.37-2.05-21.56-1.74-22.43-9.38,8.14-21.3,54.45,9.31-65-5.47-7.16-29.45,83.9.64-30.76-17.14,36,7.07-54.08,3-38.19-8.59,4.4-18.43,39.68-11.74,15.1-6-5.56-11.11,12.47,7.52-52.38-13.09,19.34-4.17-11.44-15.37,26.63,4.12-39.25-8.5,3.37-5.36-7.09-8,1.59-17.91,33.71-9,4.36-5.53-6.73,6.27-44-.1-23.36-9.06,4.91-26.92,60.07,13.63-65.38-26.12,57.17-2-17.12-16.2,27.31,23.14-97L2461.28,2084l-29.48,70.51,12.2-63.86-1.22-20.89-29.14,71.22,6.31-45.86-18.78,37.84,11.86-65.56-2.88-16.14-28.67,72.86,15.53-80.14-17.81,35.92-15.78,29.4-13.63,22.26,3.77-40.32-8.7,4.56,6.78-52.51-24.14,61.87,2.56-37.5L2314.35,2099l7.41-56.84L2303.7,2083l3.09-41.15-14.13,26.25,1.07-34-3.87-14.73-26.35,76.9.14-30.86-5.1-9.6-6.17-5.26-15.55,34.7-6.6-3.11-2.15-22.6,4-50-9.58,9.33-15,34.25-2.14-23.85-16.48,41.88,1.15-39.55-2.5-23.18-13.36,28.35-15.37,38.91,1.4-42.62-16.47,45.4,5.57-64.61-8.11,3.65-3.26-21.33-10.66,17L2108.94,2071l-1.93-28.51,2.86-55.54-17.19,54.2-6.3-5.46-7.81,3,1.81-52.65-13.08,33.39-12.22,29.35,5.89-79.54-13.8,39.23-6.87-2.75-3.52-24.2-15.7,53.79,2.54-64.18-12.6,34.76-9.55,15.32-3.82-23.75-10.34,21.35-7.29.31-1.58-41.36-6.92-3.13L1954.77,2046l-7-1.46,2.07-72.71-14.51,57.66-8.24,8.68,1.84-75.53-5.75-13.72-18.56,97.93,1.45-76.75-7.25-.62-7.93,5.81-4.68-25.18-9.77,23.78-5-23.38-9.47,22-4.41-30.56-14.2,74.63-5.59-17.74-10.7,40.36-3.23-46.1-8.31,13.33-3.07-52-11.77,58.2-6-15.34-5.76-20.17-6.74-7.32-11.47,63.36-6.46-10-2.16-80.73-9.15,30.91-5.64-28.31-6.92-7.16-9.88,49.53-4.69-51.26-11,78.93-5.46-37.89-7.53,7.36-5.33-47.63-8.9,43.08-8,21.71-7.55,12.34-6.4-24.83-5.64-57.61-7.46,5.6-7.69,17.75-7.24-1.34-7.14-7.46-7.45,10.86-7.06-16.53-8,72.41-7.18,8.88-6.69-87.42-7.32,4.5-7.29,44.45-7.16,11.74-7.14,5.52-7.55-51.65-6.87,40.81-7.32-11.61-7,17.22-7.2-1.65-7.89-36.26-7.19,3.47-7.46-8.35-6.9,13.91-8.14-30.5-7.19,4.19-4.45,82.52-9.89-75.11-7.66-9.36-7.34-.4-3.35,89.65-7.4-6.39-9.28-44-9.28-39.67-2.8,83.73-8-15.93-7,3.08-6.22,15.3-8.43-20.39-9.38-33.28-8.67-20.57-1.1,87.42-13.31-84.42-3.06,56-8.27-14-10.86-45.2-5.91,17.06-1.49,67.77L1318,1962.33l-7,3.71-.7,71.1-9.15-21.32-14-69.59.59,79.47-13.14-58.39-5,22.17-8.78-14.16-9.83-23.18L1246,1972,1236,1949.3l3.1,89.58-7.88-6L1223,2024l-12.23-40.51-1.94,42.38-9.16-15.1-5.73,11.54-4.55,20L1177,2003.72l-2.71,32.94-4.12,22-14.63-52.22-10.12-19.4,1.12,57.13-12.23-33.43-.56,44.09-11.61-28.49-16.28-57.19-6,9,7.31,90.54-22.92-95.54,1.48,53.22-15.93-50.93-2.71,27.38,1,48-14.61-41.63-10.5-17.57,4.75,66.94-5.09,11.78-6.9,1.76-11.5-22.62-5.67,8.47-10.72-17.78-7.74-2.11-4.1,16.29-19.59-61.18-4.24,15.83,9.09,80.41-9.57-11.21-16.63-44.5.11,35.29-1.51,27L939,2061.6,929.27,2051l-.37,31.52-19.64-54.91,5,55-10.19-12.49-11.66-18.56-15.39-34.09,6.5,59.23-3.66,15.5-8.18-3.49L869,2107.53l-20.76-54.62,3.31,43.34L847.85,2111,827.08,2058l1.58,35.4-13-21.55,5.13,48.31L792.69,2041l3,39.79-6.29,4.37-7.66-.78-1.84,20.65,1.66,33.08-8.47-4-20.42-46.64,5.86,47.33-8.4-3.55-18.08-37.17L715.86,2064l-2.52,17.39,1.31,30.17-10.51-10.17L689.89,2079l-3.64,13.14,10.42,59.24-25.09-57.63-12.5-15.89,8,50.28,2.61,32.34-14-20.78-1.31,19.52-31.51-74.89,2.47,31.41,13.76,65.59-31.55-73.37,17.92,77.35-35.46-84,.85,25.46-12.16-13.37-3.4,12.6-14.35-19.48,22,86.15-24-47.38-4.13,10.06-7,1.72,3.85,32.36-2.79,13.39-32.44-69-6.45,3.56,8.87,45.49-7.86-.58-21.42-37.17,0,21L477,2153.14l10.63,48.71-22.27-38.41L475.82,2211l-8.93-3.29,5.39,33.7L452,2208.94l-14.28-16.7,11.36,48.34-14.94-18.3,1.51,23L418,2220.5l-17.56-24.18L414,2248.77l-34-63.91-1.54,15.33-1.61,15-7.43,1-8.82-2.31,15,53.95-39-73.21,7.52,36,13,48.3-21.11-30.74L325,2240.69l11.77,44.66-8.35-1.31-21.27-30.22,15.33,51.8L292.3,2256l14.26,48.87-36.67-63.22,15.51,51.16-19.6-25.39,1.26,19.84-18-21.57-15.44-15.84,27,74L214.68,2244l13,44.11,10,37.32-20.74-26.47-.22,16,1.73,19.79-17.39-19.15L180.36,2290l.75,17.75,5.67,27.33-12.28-8.43-27.95-39.11,5.48,26.72,1.09,17.92-6.56,3,14.67,43.71L137,2348l-25.38-32.75,15.61,45-13-9.15-21.22-24.3,8,30.15-23.21-27.61,2.36,19.5,2.8,20.1,13,38.33-4.74,6-32.68-43.75q-20-27-22.67-25.43-4.11,2.51,34,74.46L45,2389.33l16.71,43.37-41.36-57.18L0,2395.06Z"/>

<g id="t5"><polygon class="cls-5" points="624.5 1633.93 630.65 1635.22 637.49 1633.55 645.53 1634.15 641.83 1626.45 636.56 1620.74 635.99 1612.77 632.74 1606.09 629.32 1599.49 623.5 1594.04 621.34 1586.84 617.93 1580.23 616.76 1572.55 610.48 1567.32 607.21 1560.66 606.54 1552.73 603.21 1546.08 599.27 1541.62 594.42 1545.63 594.12 1553.73 590.82 1560.39 587.57 1567.07 583.14 1573.18 579.8 1579.82 578.1 1587.24 574.41 1593.72 570.94 1600.29 568.34 1607.29 564.23 1613.55 560.68 1620.1 557.15 1626.65 554.86 1633.15 561.05 1631.47 567.88 1633.26 575.24 1633.16 570.57 1639.01 569.1 1645.8 567.3 1652.43 562.29 1657.52 561.47 1664.63 556.38 1669.69 555.29 1675.35 561.78 1677.36 569.12 1676.33 567.44 1683 564.8 1689.47 558.46 1694.19 555.96 1700.74 553.06 1708.74 563.08 1707.98 572.93 1706.72 567.21 1712.95 567.4 1720.62 561.88 1725.53 561.35 1732.84 555.77 1737.74 554.13 1744.63 561.15 1745.89 568.08 1745.59 575.01 1746.35 581.94 1746.44 588.86 1745.08 595.79 1745.64 602.72 1745.03 609.65 1744.34 616.58 1744.48 623.51 1742.69 630.44 1744.61 637.38 1746.04 645.86 1745.57 642.32 1737.96 639.71 1731.65 634.11 1726.78 633.47 1719.51 629.9 1713.65 627.69 1708.72 635.46 1705.69 644.67 1707.99 641.77 1701.14 636.79 1695.78 633.42 1689.65 632.83 1682.17 628.21 1675.46 636.75 1678.05 644.43 1676.24 642.73 1669.43 639.23 1663.61 636.28 1657.53 634.42 1650.92 631.35 1644.9 626.73 1639.61 624.5 1633.93"/><rect class="cls-5" x="594.68" y="1698.03" width="9.18" height="86.17"/></g>

<g id="t6"><polygon class="cls-7" points="1711.59 1772.07 1718.48 1774 1726.36 1771.42 1734.25 1773.46 1743.14 1772.07 1736.95 1765.77 1737.87 1757.25 1734.68 1750.71 1731.21 1744.31 1724.05 1739.67 1722.53 1732.32 1719.08 1725.9 1719.08 1717.83 1711.22 1713.53 1707.97 1707.01 1708.75 1698.56 1705.42 1692.08 1698.52 1687.32 1700.52 1678.29 1692.88 1673.88 1689.86 1667.25 1686.75 1660.67 1685.47 1653.2 1682.5 1646.55 1677.02 1641.1 1674.58 1634.18 1672.78 1628.03 1671.54 1634.43 1667.02 1640.34 1663.36 1646.65 1659.73 1652.98 1658.04 1660.25 1656.69 1667.67 1651.05 1673.04 1648.44 1679.86 1642.55 1685.11 1641.64 1692.75 1640.22 1700.15 1633.86 1705.17 1633.94 1713.28 1627.47 1718.25 1627.37 1726.28 1620.7 1731.15 1618.81 1738.32 1617.76 1745.9 1615.19 1752.74 1606.95 1756.86 1604.59 1763.82 1601.44 1772.77 1611.31 1771.84 1619.19 1769.24 1627.09 1774.39 1636.87 1769.98 1629.96 1777.01 1630.55 1785.37 1623.35 1790 1622.21 1797.54 1617.37 1803.29 1614.63 1810.06 1610.43 1816.13 1607.14 1822.63 1605.88 1830.12 1602.07 1837.98 1611.18 1837.74 1618.95 1836.67 1626.84 1836.96 1625.99 1845.21 1620.01 1850.86 1614.7 1856.83 1610.87 1863.51 1608.61 1870.96 1604.75 1877.64 1605.49 1884.5 1610.24 1887.18 1617.06 1886.14 1623.89 1887.88 1633.32 1883.96 1627.01 1891.52 1623.92 1897.8 1623.89 1905.56 1621.39 1912.12 1614.62 1916.64 1614.19 1924.2 1606.87 1928.45 1606.27 1935.94 1601.53 1943.63 1610.72 1943.65 1618.02 1943.62 1625.32 1945.44 1632.62 1945.2 1639.91 1942.31 1647.22 1939.76 1654.52 1943.72 1661.82 1940.81 1669.12 1945.15 1676.42 1944.67 1683.72 1942.4 1691.02 1939.32 1698.32 1944.53 1705.62 1941.79 1712.92 1944 1720.22 1942.48 1727.53 1939.58 1734.84 1942.9 1743.93 1943.56 1739.99 1935.62 1737.5 1929.05 1731.66 1924.09 1731.59 1916.35 1725.42 1911.55 1721.37 1905.73 1720.35 1898.45 1719.89 1890.89 1715.66 1886.02 1721.67 1885.43 1728.49 1884.57 1735.32 1883.76 1741.14 1885.03 1736.25 1879.84 1732.91 1872.92 1729.86 1865.86 1727.71 1858.38 1723.76 1851.74 1724.37 1842.91 1719.76 1837.62 1726.61 1837.69 1734.38 1837.92 1744.71 1838.84 1737.82 1831.04 1737.41 1823.15 1731.82 1817.76 1729.69 1810.7 1723.68 1805.5 1726.02 1796.29 1719.78 1791.2 1718.94 1783.52 1711.99 1778.67 1711.59 1772.07"/><rect class="cls-7" x="1665.72" y="1870.7" width="14.13" height="132.67"/></g>

<g id="t7"><polygon class="cls-7" points="3179.97 2063.72 3185.5 2065.45 3191.95 2063.34 3198.4 2065.01 3205.75 2063.74 3200.03 2057.53 3200.21 2049.38 3197.03 2042.84 3193.62 2036.41 3187.2 2031.43 3185.38 2024.23 3181.99 2017.79 3181.42 2010 3174.42 2005.3 3171.2 1998.78 3171.26 1990.68 3167.97 1984.19 3161.75 1979.11 3162.82 1970.53 3156 1965.74 3152.95 1959.13 3149.84 1952.54 3148.16 1945.21 3144.8 1951.72 3143.56 1959.19 3139.83 1965.46 3136.35 1971.86 3133.98 1978.79 3129.7 1984.81 3126.14 1991.16 3122.6 1997.53 3120.65 2004.66 3118.97 2011.92 3113.79 2017.5 3111.09 2024.27 3105.7 2029.75 3104.38 2037.18 3102.65 2044.42 3096.88 2049.72 3096.37 2057.56 3090.51 2063.76 3097.91 2061.59 3104.36 2064.78 3110.81 2063.64 3118.66 2062.61 3115.92 2070.89 3108.54 2075.6 3105.97 2082.63 3102.57 2089.26 3100.79 2096.65 3099.47 2104.28 3092.45 2109.18 3093.2 2116.17 3097.81 2118.66 3104.16 2115.27 3108.75 2117.82 3107.22 2123.52 3102.66 2129.46 3099.84 2136.22 3095.8 2142.42 3092.52 2148.98 3090.93 2156.96 3098.9 2157.96 3106.34 2157.19 3114.02 2156.45 3110.69 2163.29 3109.53 2170.89 3104.17 2176.48 3099.37 2182.34 3095.77 2188.77 3093.46 2195.83 3089.91 2203.97 3098.55 2201.16 3105.64 2204.4 3112.72 2203.55 3119.81 2204.97 3126.89 2200.56 3133.98 2203.66 3141.06 2203.72 3148.15 2200.99 3155.23 2200.51 3162.32 2203.9 3169.4 2201.54 3176.49 2205.42 3183.57 2203.22 3190.66 2204.92 3197.76 2204.11 3205.74 2203.57 3203.94 2195.32 3200.58 2188.78 3195.26 2183.17 3190.2 2177.44 3189.93 2169.41 3184.59 2163.8 3184.47 2157.84 3189.97 2158.51 3197.41 2156.66 3202.77 2155.27 3203.29 2149.24 3198.09 2143.6 3196.55 2136.22 3192.26 2130.15 3186.94 2124.56 3186.22 2117.17 3192.15 2118.73 3198.5 2117.77 3206.01 2117.51 3200.49 2110.81 3199.69 2102.93 3193.9 2097.46 3189.85 2091.15 3188.27 2083.65 3187.15 2075.93 3183 2069.7 3179.97 2063.72"/><rect class="cls-7" x="3142.39" y="2144.49" width="11.55" height="108.44"/></g>

<g id="Stars"><circle class="cls-4" cx="726.14" cy="111.29" r="18.86" transform="translate(99.69 494.98) rotate(-40.2)"/><circle class="cls-4" cx="2500" cy="477" r="18.86"/><circle class="cls-4" cx="4658.71" cy="623.29" r="18.86" transform="translate(923.78 3476.76) rotate(-45)"/><circle class="cls-4" cx="233" cy="934.14" r="18.86" transform="translate(-359.61 175.38) rotate(-23.99)"/><circle class="cls-4" cx="726.14" cy="797" r="6.5"/><circle class="cls-4" cx="1817.93" cy="495.86" r="6.5"/><circle class="cls-4" cx="3312.79" cy="288.14" r="6.5"/><circle class="cls-4" cx="3091.47" cy="790.5" r="6.5"/><circle class="cls-4" cx="2715.86" cy="143.14" r="6.5"/><circle class="cls-4" cx="1742.14" cy="953" r="6.5"/><circle class="cls-4" cx="745" cy="1221.98" r="6.5"/><circle class="cls-4" cx="4161.95" cy="803.5" r="6.5"/><circle class="cls-4" cx="4498.62" cy="327.14" r="6.5"/><circle class="cls-4" cx="4856" cy="1181" r="6.5"/><circle class="cls-4" cx="1357.43" cy="1243.79" r="6.5"/><circle class="cls-4" cx="251.86" cy="1299.68" r="6.5"/><circle class="cls-4" cx="1665.72" cy="236.14" r="6.5"/><circle class="cls-4" cx="251.86" cy="249.14" r="13"/><circle class="cls-4" cx="1509" cy="604.43" r="13"/><circle class="cls-4" cx="933" cy="604.43" r="13"/><circle class="cls-4" cx="3908.29" cy="959.5" r="13"/><circle class="cls-4" cx="4225.21" cy="591.43" r="13"/><circle class="cls-4" cx="3675.14" cy="249.14" r="13"/><circle class="cls-4" cx="1056.43" cy="972.5" r="13"/><circle class="cls-4" cx="2058.29" cy="811.33" r="13"/><circle class="cls-4" cx="4849.5" cy="824.33" r="13"/><circle class="cls-4" cx="1234" cy="314.14" r="13"/><circle class="cls-4" cx="2071.29" cy="275.14" r="13"/><circle class="cls-4" cx="3662.14" cy="642.14" r="13"/><circle class="cls-4" cx="4869" cy="130.14" r="13"/><circle class="cls-4" cx="4071.35" cy="301.14" r="13"/><circle class="cls-4" cx="4458.16" cy="1029.58" r="13"/><circle class="cls-4" cx="2633.57" cy="1029.58" r="13"/></g>

<polygon id="star2" class="cls-4" points="2222.58 810.85 2263.66 811.33 2815.14 642.14 2222.58 810.85"/>

    <style>
        #Stars{
            <!-- animation: float1 5s ease-in-out infinite ;
            transform-origin: center;
            animation-delay: 2s;
            animation: float1 5s ease-in-out infinite ;
            animation-direction: reverse; -->

        }
        
        

        #star2{
            animation: wheel 0.9s infinite linear;
            transform-origin: center;
            transform-box: fill-box;
        }
        
        @keyframes wheel{
            from{
                transform: rotateZ(0deg);
            }
            to{
                transform: rotateZ(360deg);
            }
        }

        @keyframes float1 {
            from{
                transform: none;
            }
            to{
                transform:scale(1.1,1.1);
            }
        }

    </style>
</svg>
