<svg id="Layer_1" data-name="Layer 1" xmlns="http://www.w3.org/2000/svg" xmlns:xlink="http://www.w3.org/1999/xlink"
    viewBox="0 0 280 290">
    <defs>
        <style>
            .cls-1 {
                fill: url(#radial-gradient);
            }

            .cls-2 {
                fill: #1a1a1a;
            }

            .cls-3 {
                fill: #fff;
            }

            .cls-4 {
                fill: #d0d5dd;
                fill-opacity: 0.41;
            }
        </style>
        <radialGradient id="radial-gradient" cx="-817.65" cy="688.75" r="1"
            gradientTransform="matrix(2, 296.06, 297.32, -2.01, -203003.5, 243468.78)" gradientUnits="userSpaceOnUse">
            <stop offset="0" stop-color="#fcfcfd" />
            <stop offset="0.47" stop-color="#f2f4f7" />
            <stop offset="0.75" stop-color="#e4e7ec" />
            <stop offset="1" stop-color="#d0d5dd" />
        </radialGradient>
    </defs>
    <title>Gost</title>
    <path class="cls-1"
        d="M280,139.41V250.74a40.49,40.49,0,0,1-17.48,33.58,31.78,31.78,0,0,1-19,5.65c-14.08,0-20.5-6.6-27.6-12.63-5.94-5-12.36-9.68-24.17-9.68s-18.14,4.58-24.05,9.59l-.11.09C160.52,283.4,154.1,290,140,290c-13.07,0-19.54-5.69-26.07-11.31s-12.88-11-25.69-11c-12.22,0-18.67,5-24.8,10.22C56.59,283.77,50.14,290,36.49,290a31.78,31.78,0,0,1-19-5.67A40.51,40.51,0,0,1,0,250.73V139.41A140.12,140.12,0,0,1,239,40.83,139.1,139.1,0,0,1,280,139.41Z"
        transform="translate(0)" />
    <path id="rightEyeB" class="cls-2" d="M188,143a20,20,0,1,0-20-20A20,20,0,0,0,188,143Z" transform="translate(0)" />
    <path id="leftEyeB" class="cls-2" d="M92,143a20,20,0,1,0-20-20A20,20,0,0,0,92,143Z" transform="translate(0)" />
    <path id="rightEye" class="cls-3" d="M182,122a5,5,0,1,0-5-5A5,5,0,0,0,182,122Z" transform="translate(0)" />
    <path id="leftEye" class="cls-3" d="M86,122a5,5,0,1,0-5-5A5,5,0,0,0,86,122Z" transform="translate(0)" />
    <path class="cls-4"
        d="M114,279c-6.46-5.54-13-11-25.95-11-12.34,0-18.86,5-25,10.26.6-.86,19.6-28.62,24.53-82.26C87.53,196,92.67,254.9,114,279Z"
        transform="translate(0)" />
    <path class="cls-4"
        d="M216,277c-5.91-5-12.3-9.63-24.06-9.63s-18.06,4.56-23.94,9.54C187.18,260.35,191.94,196,191.94,196,199.3,247.19,216,277,216,277Z"
        transform="translate(0)" />

    <style>
        @keyframes Blink{
            0%{transform: translate(0, 0)}
            20%{transform: translate(0, 0)}
            30%{transform: scale(0);}
            40%{transform: translate(0, 0)}
            100%{transform: translate(0, 0)}
        }
        @keyframes Wheel2 {
            0% {
                transform: rotateZ(360deg);
                transform-origin: bottom;
                transform-box: fill-box;
            }

            100% {
                transform: rotateZ(0deg);
                transform-origin: bottom;
                transform-box: fill-box;
            }
        }

        #leftEye,#rightEye{
            animation:Wheel2 1.5s infinite ease-in-out;
        }
    </style>
</svg>