<svg id="Layer_1" data-name="Layer 1" xmlns="http://www.w3.org/2000/svg" xmlns:xlink="http://www.w3.org/1999/xlink"
    viewBox="0 0 299.04 299.04">
    <defs>
        <style>
            .cls-1 {
                fill: url(#radial-gradient);
            }

            .cls-2 {
                fill: #343434;
            }

            .cls-2,
            .cls-3 {
                fill-rule: evenodd;
            }

            .cls-3 {
                fill: #0f002f;
            }

            .cls-4 {
                fill: url(#radial-gradient-2);
            }

            .cls-5 {
                fill: url(#radial-gradient-3);
            }

            .cls-6 {
                fill: #1a1a1a;
            }

            .cls-7 {
                fill: #fff;
            }
        </style>
        <radialGradient id="radial-gradient" cx="-805.13" cy="694.22" r="1.07"
            gradientTransform="matrix(111.5, 222.49, 222.5, -111.5, -64592.57, 256573.1)"
            gradientUnits="userSpaceOnUse">
            <stop offset="0" stop-color="#ffeca5" />
            <stop offset="0.37" stop-color="#ffd048" />
            <stop offset="0.64" stop-color="#ffbe18" />
            <stop offset="0.99" stop-color="#ff9d0f" />
        </radialGradient>
        <radialGradient id="radial-gradient-2" cx="-825.21" cy="698.86" r="1.07"
            gradientTransform="matrix(-49.5, -7, -5.58, 39.47, -36854.62, -33312.42)" gradientUnits="userSpaceOnUse">
            <stop offset="0" stop-color="#8a22d8" />
            <stop offset="1" stop-color="#290048" stop-opacity="0.56" />
        </radialGradient>
        <radialGradient id="radial-gradient-3" cx="-792.83" cy="679.4" r="1.07"
            gradientTransform="matrix(49.5, -7, -5.58, -39.47, 43248.41, 21320.46)" xlink:href="#radial-gradient-2" />
    </defs>
    <title>catmask</title>
    <path id="face" class="cls-1"
        d="M301,150.53A149.52,149.52,0,1,1,64.19,29.15c2.36-1.69,4.77-3.33,7.22-4.88a149.53,149.53,0,0,1,223.8,84.88c.53,1.85,1,3.71,1.48,5.59.71,2.83,1.32,5.68,1.85,8.54A150.94,150.94,0,0,1,301,150.53Z"
        transform="translate(-1.98 -1)" />
    <g id="mouth">
        <path class="cls-2"
            d="M116.52,227a3.21,3.21,0,0,1,4.47.72h0s0,0,.07.09l.35.42a20.46,20.46,0,0,0,7.13,5.29c4.64,2,11.7,2.77,21.05-4.17a3.2,3.2,0,0,1,3.82,0c9.35,6.94,16.42,6.18,21.05,4.17a20.46,20.46,0,0,0,7.13-5.29l.35-.42.07-.09h0a3.2,3.2,0,0,1,5.19,3.75l-2.49-1.79,2.49,1.79h0l0,0,0,.06-.15.19c-.13.17-.3.38-.53.65a25.65,25.65,0,0,1-2,2,26.65,26.65,0,0,1-7.5,5c-6.4,2.78-15.2,3.3-25.51-3.57-10.31,6.87-19.11,6.34-25.51,3.56a26.58,26.58,0,0,1-7.49-5,26.09,26.09,0,0,1-2-2l-.53-.64-.14-.2-.05-.06,0,0h0l2.6-1.87-2.6,1.87A3.21,3.21,0,0,1,116.52,227Z"
            transform="translate(-1.98 -1)" />
    </g>
    <g id="mask">
        <path class="cls-3"
            d="M275.78,95c4.27-55.85-16.33-94-16.33-94-30,10-62.35,36-76.29,48.06a280.94,280.94,0,0,0-63.37,0C105.85,37,73.58,11,43.54,1c0,0-20.61,38.12-16.35,94C5.72,120.78,7.35,147,7.35,147c0,44.28,33.19,63.37,70.67,63.37,26.66,0,49.62-19,58.08-26,.39-.33.75-.63,1.09-.9,7.41-6.08,14.32-5.69,14.32-5.69s6.92-.42,14.32,5.69l.95.79c8.33,6.92,31.42,26.11,58.21,26.11,37.49,0,70.67-19.08,70.67-63.37a1.16,1.16,0,0,1,0-.13C295.72,144.82,296.38,119.73,275.78,95ZM56.62,134.54s11.21-36.74,45.61-26.78,27.56,45.05,27.56,45.05S116.32,178,88,175.45,56.62,134.54,56.62,134.54Zm144-26.78c34.39-10,45.67,26.78,45.67,26.78s-3.15,38.37-31.45,40.91S173,152.81,173,152.81,166.19,117.71,200.58,107.76Z"
            transform="translate(-1.98 -1)" />
    </g>
    <g id="LEyar">
        <path class="cls-4"
            d="M99.17,55.22C66.06,62.86,45.31,77.51,32.36,92.85c-3.65-50.95,15-84.37,15-84.37C72.13,23.89,88.54,40.9,99.17,55.22Z"
            transform="translate(-1.98 -1)" />
    </g>
    <g id="REyar">
        <path class="cls-5"
            d="M203.83,55.22c33.11,7.64,53.86,22.29,66.81,37.63,3.65-50.95-15-84.37-15-84.37C230.87,23.89,214.46,40.9,203.83,55.22Z"
            transform="translate(-1.98 -1)" />
    </g>
    <g id="leftEye">
        <path class="cls-6" d="M204.9,161.2a21.36,21.36,0,1,0-21.36-21.36A21.36,21.36,0,0,0,204.9,161.2Z"
            transform="translate(-1.98 -1)" />
        <path class="cls-7" d="M210.24,137.7a5.34,5.34,0,1,0-5.34-5.34A5.34,5.34,0,0,0,210.24,137.7Z"
            transform="translate(-1.98 -1)" />
    </g>
    <g id="rightEye">
        <path class="cls-6" d="M98.1,161.2a21.36,21.36,0,1,0-21.36-21.36A21.36,21.36,0,0,0,98.1,161.2Z"
            transform="translate(-1.98 -1)" />
        <path class="cls-7" d="M103.44,137.7a5.34,5.34,0,1,0-5.34-5.34A5.34,5.34,0,0,0,103.44,137.7Z"
            transform="translate(-1.98 -1)" />
    </g>

    <style>
        @keyframes Blink{
            0%{transform: scale(0);}
            20%{transform: translate(0, 0)}
            50%{transform: scale(1);}
            80%{transform: translate(0, 0)}
            100%{transform: scale(0);}
        }
        #leftEye,#rightEye{
            animation:Blink 2.5s infinite ease-in-out;
        }
    </style>
</svg>