<svg id="Layer_1" data-name="Layer 1" xmlns="http://www.w3.org/2000/svg" xmlns:xlink="http://www.w3.org/1999/xlink"
    viewBox="0 0 347.7 437">
    <defs>
        <style>
            .cls-1 {
                fill: url(#radial-gradient);
            }

            .cls-2 {
                fill: #fff;
            }

            .cls-3 {
                fill: #1a1a1a;
            }

            .cls-4 {
                fill: #00ad26;
            }
        </style>
        <radialGradient id="radial-gradient" cx="-756.28" cy="761.22" r="1.2"
            gradientTransform="matrix(107.5, 214.5, 214.51, -107.5, -81840.5, 244202.66)"
            gradientUnits="userSpaceOnUse">
            <stop offset="0" stop-color="#ffeca5" />
            <stop offset="0.37" stop-color="#ffd048" />
            <stop offset="0.64" stop-color="#ffbe18" />
            <stop offset="0.99" stop-color="#ff9d0f" />
        </radialGradient>
    </defs>
    <title>witch</title>
    <path id="face" class="cls-1"
        d="M371.93,274.67a162.36,162.36,0,1,1-257.15-131.8c2.56-1.84,5.17-3.62,7.84-5.3a162.34,162.34,0,0,1,243,92.16q.87,3,1.61,6.07c.77,3.07,1.43,6.17,2,9.27A164.19,164.19,0,0,1,371.93,274.67Z"
        transform="translate(-24.23 0)" />
    <path id="leftEyeW" class="cls-2" d="M181.63,273.68c0,18.56-16.49,33.82-36.53,33.82s-36.53-15.26-36.53-33.82Z"
        transform="translate(-24.23 0)" />
    <path id="leftEye"
        d="M159,275.92a14.44,14.44,0,1,1-28.87,0,13.85,13.85,0,0,1,.18-2.22h28.52A13.83,13.83,0,0,1,159,275.92Z"
        transform="translate(-24.23 0)" />
    <path id="rightEyeW" class="cls-2" d="M310.51,273.68c0,18.56-16.48,33.82-36.53,33.82s-36.53-15.26-36.53-33.82Z"
        transform="translate(-24.23 0)" />
    <path id="rightEye"
        d="M287.86,275.92a14.44,14.44,0,1,1-28.86,0,15.09,15.09,0,0,1,.17-2.22H287.7A15.07,15.07,0,0,1,287.86,275.92Z"
        transform="translate(-24.23 0)" />
    <g id="hat">
        <path class="cls-3"
            d="M296.13,108.52c2.12-8.68.63-17.8-9.55-24.5-23-15.18-58.52,29.32-92.56,61.93-29.13,27.91-68,51.18-98.76,61l-2.71.84c-31.11,9.29-46.7.3-54.87-5.83-5.81-4.36-12.62-13.07-13.35-20.11a40.5,40.5,0,0,0,11.86,14.89c8.12,6.14,23.72,15.12,54.88,5.81s71.5-33.12,101.46-61.89c15.66-15.1,31.76-32.73,46.77-45.83,17.43-15.2,33.41-24.35,45.79-16.12C285.05,78.75,301.93,86.77,296.13,108.52Z"
            transform="translate(-24.23 0)" />
        <path
            d="M296.13,108.52a1.69,1.69,0,0,1-.12.48,44.17,44.17,0,0,1-3.75,9.47.26.26,0,0,1-.1.2,70.07,70.07,0,0,1-7.6,11.33,160.49,160.49,0,0,0-57.23-17.32c22.55-22,43.7-38.87,59.2-28.66C296.72,90.72,298.21,99.84,296.13,108.52Z"
            transform="translate(-24.23 0)" />
        <path class="cls-3"
            d="M224.26,91.54s-8.12,32.37-55,55.39-77.59,13.28-77.59,13.28.66-13.37.73-30.62c.13-25.88-1-60.54-7.78-72,0,0-44.3,31.05-52.77,25.49S78.41-3.84,111.36.14C133.45,2.85,176.7,43,202.78,69.21,215.59,82.06,224.26,91.54,224.26,91.54Z"
            transform="translate(-24.23 0)" />
        <path
            d="M239.3,94.87c-15,13.1-31,30.73-46.77,45.8-30,28.78-70.35,52.61-101.47,61.89s-46.7.33-54.87-5.81a40.46,40.46,0,0,1-11.86-14.88,8.13,8.13,0,0,1,2.59-7.31c7.57-6.58,18.47,5,18.47,5,41.39-11,46.32-19.39,46.32-19.39s30.74,9.79,77.59-13.27,55-55.39,55-55.39Z"
            transform="translate(-24.23 0)" />
        <path class="cls-4"
            d="M224.26,91.54s-8.12,32.37-55,55.39-77.59,13.28-77.59,13.28.66-13.37.73-30.62a139.73,139.73,0,0,0,62.39-13c21.18-10,37.47-30.54,48-47.36C215.59,82.06,224.26,91.54,224.26,91.54Z"
            transform="translate(-24.23 0)" />
    </g>
    <path id="mouth"
        d="M181.68,355.46a.65.65,0,0,1-.17-.34.53.53,0,0,1,.07-.37.57.57,0,0,1,.27-.26.63.63,0,0,1,.38,0,77.79,77.79,0,0,0,68.32-24.86.6.6,0,0,1,.32-.22.6.6,0,0,1,.67.26.57.57,0,0,1,.08.38c-.67,5.68-4.27,23.69-27.85,32.28S185.84,359.38,181.68,355.46Z"
        transform="translate(-24.23 0)" />
    <style>
        @keyframes eyemove2{
            0%{transform: translate(0, 0)}
            20%{transform: translate(0, 0)}
            30%{transform: translate(-25px, -1px)}
            40%{transform: translate(0, 0)}
            100%{transform: translate(0, 0)}
        }
        #leftEye,#rightEye{
            animation:eyemove2 3s infinite ease-in-out;
        }
    </style>
</svg>

