<svg id="Layer_1" data-name="Layer 1" xmlns="http://www.w3.org/2000/svg" xmlns:xlink="http://www.w3.org/1999/xlink"
    viewBox="0 0 410.16 375">
    <defs>
        <style>
            .cls-1 {
                fill: url(#radial-gradient);
            }

            .cls-2 {
                fill: #1a1a1a;
            }

            .cls-3 {
                fill: #fff;
            }

            .cls-4 {
                fill: url(#linear-gradient);
            }
        </style>
        <radialGradient id="radial-gradient" cx="-745.42" cy="730.03" r="1.34"
            gradientTransform="matrix(111.43, 222.49, 222.41, -111.39, -79164.94, 247206.18)"
            gradientUnits="userSpaceOnUse">
            <stop offset="0" stop-color="#ffeca5" />
            <stop offset="0.37" stop-color="#ffd048" />
            <stop offset="0.64" stop-color="#ffbe18" />
            <stop offset="0.99" stop-color="#ff9d0f" />
        </radialGradient>
        <linearGradient id="linear-gradient" x1="210.63" y1="96.82" x2="210.63" y2="73.38"
            gradientTransform="matrix(1, 0, 0, -1, 0, 376)" gradientUnits="userSpaceOnUse">
            <stop offset="0" stop-color="#632900" />
            <stop offset="0.29" stop-color="#6a2d04" />
            <stop offset="1" stop-color="#b76200" />
        </linearGradient>
    </defs>
    <title>batface</title>
    <path id="face" class="cls-1"
        d="M398,187.52A187.36,187.36,0,1,1,101.21,35.3c3-2.12,6-4.17,9.05-6.12A187.38,187.38,0,0,1,390.73,135.63q1,3.47,1.86,7,1.32,5.33,2.32,10.71A188.45,188.45,0,0,1,398,187.52Z"
        transform="translate(-5.84 0)" />
    <path id="rightEyeB" class="cls-2" d="M273.53,196.87a24.11,24.11,0,1,0-24.09-24.1A24.1,24.1,0,0,0,273.53,196.87Z"
        transform="translate(-5.84 0)" />
    <path id="rightEye" class="cls-3" d="M279.56,170.36a6,6,0,1,0-6-6A6,6,0,0,0,279.56,170.36Z"
        transform="translate(-5.84 0)" />
    <path id="leftEyeB" class="cls-2" d="M147.72,196.87a24.11,24.11,0,1,0-24.09-24.1A24.09,24.09,0,0,0,147.72,196.87Z"
        transform="translate(-5.84 0)" />
    <path id="leftEye" class="cls-3" d="M153.74,170.36a6,6,0,1,0-6-6A6,6,0,0,0,153.74,170.36Z"
        transform="translate(-5.84 0)" />
    <g id="mask">
        <path
            d="M316.79,68.48c-5.55,4.81,1.85,31.86-20,49.26S247.19,130,247.19,130c-1.11-9.24-15.17-38.13-18.49-37.77s-17.78,21.43-17.78,21.43S196.49,92.5,193.15,92.18s-17.4,28.53-18.5,37.77c0,0-27.77,5.2-49.6-12.21s-14.45-44.45-20-49.26S20.27,159.94,5.84,209.61c0,0,52.94-26.69,78.85,26.65,0,0,36.4-41.84,72.81,3.85,0,0,35.78-11.72,53.42,16.36,17.64-28.12,53.42-16.36,53.42-16.36,36.42-45.69,72.81-3.85,72.81-3.85C363.06,182.92,416,209.61,416,209.61,401.57,159.94,322.33,63.66,316.79,68.48ZM147.59,206a32.62,32.62,0,1,1,23.06-9.56A32.67,32.67,0,0,1,147.59,206Zm126.75,0a32.64,32.64,0,1,1,23.06-9.56A32.64,32.64,0,0,1,274.34,206Z"
            transform="translate(-5.84 0)" />
    </g>
    <g id="mouth">
        <path class="cls-4"
            d="M241.41,280.35c0,12.29-13.78,22.33-30.78,22.33s-30.79-10-30.79-22.33c0-5.46,13.79,3.43,30.79,3.43S241.41,274.88,241.41,280.35Z"
            transform="translate(-5.84 0)" />
    </g>

    <style>
        @keyframes Blink{
            0%{transform: scale(0);}
            20%{transform: translate(0, 0)}
            30%{transform: scale(1);}
            80%{transform: translate(0, 0)}
            100%{transform: scale(0);}
        }
        #leftEyeB,#rightEyeB,#leftEye,#rightEye{
            animation:Blink 2s infinite ease-in-out;
        }
    </style>
</svg>